<svg width="24" height="24" viewBox="0 0 24 24" fill="none" xmlns="http://www.w3.org/2000/svg">
<path d="M15.59 7.61V4.75C15.59 4.50069 15.491 4.2616 15.3147 4.08532C15.1384 3.90903 14.8993 3.81 14.65 3.81H2.93C2.68243 3.81263 2.4459 3.91283 2.27177 4.08883C2.09765 4.26483 1.99999 4.50242 2 4.75V13C1.99999 13.2476 2.09765 13.4852 2.27177 13.6612C2.4459 13.8372 2.68243 13.9374 2.93 13.94H3.51C3.60283 13.94 3.69185 13.9769 3.75749 14.0425C3.82313 14.1081 3.86 14.1972 3.86 14.29V16.21C3.86032 16.2548 3.87375 16.2986 3.89862 16.3359C3.9235 16.3732 3.95873 16.4025 4 16.42C4.04387 16.4349 4.09121 16.4361 4.13582 16.4236C4.18043 16.4112 4.22022 16.3855 4.25 16.35L6.08 14C6.11208 13.9591 6.1531 13.9262 6.19991 13.9036C6.24671 13.8811 6.29805 13.8696 6.35 13.87H8.42L15.59 7.61Z" fill="#F7BF75"/>
<path d="M7.91 6.38C7.7022 6.37999 7.50276 6.46185 7.35489 6.60784C7.20702 6.75384 7.12263 6.95222 7.12 7.16V13.9H8.41L15.58 7.61V6.38H7.91Z" fill="#F1734D"/>
<path d="M9.34999 7.60999C9.22702 7.60998 9.10526 7.63436 8.99177 7.68172C8.87828 7.72908 8.77531 7.79848 8.68882 7.8859C8.60233 7.97332 8.53404 8.07703 8.48789 8.19102C8.44175 8.30501 8.41867 8.42702 8.41999 8.54999V16.76C8.41766 16.8826 8.44041 17.0044 8.48684 17.1179C8.53327 17.2314 8.6024 17.3342 8.68999 17.42C8.77531 17.5089 8.8778 17.5796 8.99126 17.6277C9.10471 17.6759 9.22675 17.7004 9.34999 17.7H17.65C17.7023 17.6971 17.7545 17.7075 17.8017 17.7302C17.849 17.7529 17.8896 17.7873 17.92 17.83C18.24 18.22 19.21 19.42 19.75 20.11C19.7798 20.1455 19.8196 20.1711 19.8642 20.1836C19.9088 20.1961 19.9561 20.1949 20 20.18C20.0405 20.1614 20.0751 20.132 20.0998 20.0949C20.1246 20.0578 20.1385 20.0145 20.14 19.97V18C20.1426 17.9089 20.1806 17.8224 20.246 17.7589C20.3113 17.6954 20.3989 17.6599 20.49 17.66H21.07C21.3176 17.6574 21.5541 17.5572 21.7282 17.3812C21.9023 17.2052 22 16.9676 22 16.72V8.54999C22 8.3024 21.9023 8.06481 21.7282 7.88882C21.5541 7.71282 21.3176 7.61262 21.07 7.60999H9.34999Z" fill="#F94060"/>
<path d="M19.77 7.60998V15.84C19.7681 16.3174 19.5838 16.7759 19.2547 17.1218C18.9256 17.4676 18.4767 17.6745 18 17.7L17.95 17.75C17.94 17.7826 17.94 17.8174 17.95 17.85C18.16 18.1 19.19 19.39 19.76 20.1C19.7865 20.1395 19.8263 20.1682 19.8721 20.1811C19.9179 20.1939 19.9668 20.19 20.01 20.17C20.0505 20.1542 20.0854 20.1268 20.1103 20.0912C20.1352 20.0556 20.149 20.0134 20.15 19.97V18C20.1526 17.9089 20.1906 17.8224 20.256 17.7589C20.3213 17.6954 20.4089 17.6599 20.5 17.66H21.08C21.3276 17.6573 21.5641 17.5572 21.7382 17.3812C21.9123 17.2052 22.01 16.9676 22.01 16.72V8.54998C22.0127 8.42665 21.9905 8.30403 21.9449 8.18943C21.8992 8.07482 21.831 7.97057 21.7442 7.88287C21.6575 7.79518 21.5539 7.72583 21.4398 7.67894C21.3257 7.63206 21.2033 7.60861 21.08 7.60998H19.77Z" fill="#D62657"/>
<path fill-rule="evenodd" clip-rule="evenodd" d="M10.73 10.54V10.34C10.73 10.2074 10.7827 10.0802 10.8764 9.98647C10.9702 9.8927 11.0974 9.84003 11.23 9.84003C11.3626 9.84003 11.4898 9.8927 11.5835 9.98647C11.6773 10.0802 11.73 10.2074 11.73 10.34V10.54C11.9093 10.6098 12.0726 10.7152 12.21 10.85C12.3389 10.9786 12.4409 11.1316 12.51 11.3C12.5363 11.3597 12.5504 11.424 12.5515 11.4892C12.5527 11.5544 12.5408 11.6191 12.5166 11.6797C12.4924 11.7402 12.4563 11.7953 12.4105 11.8417C12.3648 11.8881 12.3102 11.925 12.25 11.95C12.1896 11.9765 12.1246 11.9908 12.0587 11.992C11.9928 11.9933 11.9272 11.9815 11.8659 11.9573C11.8046 11.9332 11.7486 11.8971 11.7012 11.8512C11.6539 11.8054 11.6161 11.7506 11.59 11.69C11.5693 11.6433 11.5424 11.5996 11.51 11.56C11.4748 11.5244 11.4327 11.4962 11.3863 11.4773C11.3399 11.4584 11.2901 11.4491 11.24 11.45V11.45C11.1366 11.45 11.0374 11.4911 10.9642 11.5643C10.8911 11.6374 10.85 11.7366 10.85 11.84C10.85 11.9435 10.8911 12.0427 10.9642 12.1158C11.0374 12.1889 11.1366 12.23 11.24 12.23C11.5637 12.2345 11.8759 12.351 12.1234 12.5598C12.3709 12.7685 12.5383 13.0566 12.5973 13.375C12.6563 13.6933 12.603 14.0223 12.4467 14.3058C12.2904 14.5893 12.0407 14.8099 11.74 14.93V15.13C11.74 15.2626 11.6873 15.3898 11.5935 15.4836C11.4998 15.5773 11.3726 15.63 11.24 15.63C11.1074 15.63 10.9802 15.5773 10.8864 15.4836C10.7927 15.3898 10.74 15.2626 10.74 15.13V14.93C10.5576 14.8605 10.391 14.7551 10.25 14.62C10.1254 14.4938 10.0268 14.3443 9.95999 14.18C9.9286 14.0638 9.94022 13.9401 9.99272 13.8317C10.0452 13.7233 10.1351 13.6376 10.2457 13.5901C10.3564 13.5427 10.4805 13.5368 10.5952 13.5735C10.7099 13.6102 10.8074 13.6871 10.87 13.79L10.96 13.92C11.0324 13.9902 11.1292 14.0296 11.23 14.03V14.03C11.3317 14.0274 11.4283 13.9852 11.4993 13.9123C11.5703 13.8395 11.61 13.7418 11.61 13.64C11.6113 13.588 11.6022 13.5362 11.5832 13.4877C11.5642 13.4392 11.5357 13.395 11.4994 13.3578C11.463 13.3205 11.4196 13.2909 11.3716 13.2706C11.3236 13.2504 11.2721 13.24 11.22 13.24C10.894 13.2419 10.5778 13.1292 10.3265 12.9215C10.0752 12.7139 9.90494 12.4245 9.84537 12.1041C9.7858 11.7836 9.84076 11.4524 10.0006 11.1683C10.1605 10.8842 10.4151 10.6654 10.72 10.55L10.73 10.54Z" fill="#EAE2F9"/>
<path fill-rule="evenodd" clip-rule="evenodd" d="M14.12 15.26H19.29C19.4226 15.26 19.5498 15.2073 19.6435 15.1136C19.7373 15.0198 19.79 14.8926 19.79 14.76C19.79 14.6274 19.7373 14.5002 19.6435 14.4065C19.5498 14.3127 19.4226 14.26 19.29 14.26H14.12C13.9874 14.26 13.8602 14.3127 13.7664 14.4065C13.6727 14.5002 13.62 14.6274 13.62 14.76C13.62 14.8926 13.6727 15.0198 13.7664 15.1136C13.8602 15.2073 13.9874 15.26 14.12 15.26Z" fill="#EAE2F9"/>
<path fill-rule="evenodd" clip-rule="evenodd" d="M14.12 13.23H19.29C19.4226 13.23 19.5498 13.1773 19.6435 13.0835C19.7373 12.9898 19.79 12.8626 19.79 12.73C19.79 12.5974 19.7373 12.4702 19.6435 12.3764C19.5498 12.2827 19.4226 12.23 19.29 12.23H14.12C13.9874 12.23 13.8602 12.2827 13.7664 12.3764C13.6727 12.4702 13.62 12.5974 13.62 12.73C13.62 12.8626 13.6727 12.9898 13.7664 13.0835C13.8602 13.1773 13.9874 13.23 14.12 13.23Z" fill="#EAE2F9"/>
<path fill-rule="evenodd" clip-rule="evenodd" d="M14.12 11.21H19.29C19.4226 11.21 19.5498 11.1573 19.6435 11.0636C19.7373 10.9698 19.79 10.8426 19.79 10.71C19.79 10.5774 19.7373 10.4502 19.6435 10.3565C19.5498 10.2627 19.4226 10.21 19.29 10.21H14.12C13.9874 10.21 13.8602 10.2627 13.7664 10.3565C13.6727 10.4502 13.62 10.5774 13.62 10.71C13.62 10.8426 13.6727 10.9698 13.7664 11.0636C13.8602 11.1573 13.9874 11.21 14.12 11.21Z" fill="#EAE2F9"/>
</svg>
