<svg width="24" height="24" viewBox="0 0 24 24" fill="none" xmlns="http://www.w3.org/2000/svg">
<path fill-rule="evenodd" clip-rule="evenodd" d="M15.91 3.4L15.49 3.79C15.4444 3.83656 15.3899 3.87355 15.3298 3.89881C15.2697 3.92406 15.2052 3.93707 15.14 3.93707C15.0748 3.93707 15.0103 3.92406 14.9502 3.89881C14.8901 3.87355 14.8356 3.83656 14.79 3.79C14.7431 3.74351 14.7059 3.68821 14.6806 3.62728C14.6552 3.56635 14.6421 3.501 14.6421 3.435C14.6421 3.36899 14.6552 3.30364 14.6806 3.24271C14.7059 3.18178 14.7431 3.12648 14.79 3.08L16.05 1.9C16.1425 1.81425 16.2639 1.7666 16.39 1.7666C16.5161 1.7666 16.6375 1.81425 16.73 1.9L18 3.06C18.0469 3.10648 18.0841 3.16178 18.1094 3.22271C18.1348 3.28364 18.1479 3.34899 18.1479 3.415C18.1479 3.481 18.1348 3.54635 18.1094 3.60728C18.0841 3.66821 18.0469 3.72351 18 3.77C17.9535 3.81686 17.8982 3.85406 17.8373 3.87944C17.7764 3.90483 17.711 3.91789 17.645 3.91789C17.579 3.91789 17.5136 3.90483 17.4527 3.87944C17.3918 3.85406 17.3365 3.81686 17.29 3.77L16.87 3.38V7.63C16.87 8.64843 16.4654 9.62515 15.7453 10.3453C15.0252 11.0654 14.0484 11.47 13.03 11.47H9.84C9.08679 11.47 8.36442 11.7692 7.83182 12.3018C7.29921 12.8344 7 13.5568 7 14.31V16.14C7 16.2726 6.94732 16.3998 6.85355 16.4935C6.75979 16.5873 6.63261 16.64 6.5 16.64C6.36739 16.64 6.24021 16.5873 6.14645 16.4935C6.05268 16.3998 6 16.2726 6 16.14V14.31C6 13.2916 6.40457 12.3148 7.12471 11.5947C7.84485 10.8746 8.82157 10.47 9.84 10.47H13.07C13.443 10.47 13.8123 10.3965 14.1568 10.2538C14.5014 10.1111 14.8145 9.9019 15.0782 9.63818C15.3419 9.37446 15.5511 9.06138 15.6938 8.71682C15.8365 8.37225 15.91 8.00295 15.91 7.63V3.4Z" fill="#9293A5"/>
<path d="M9.36999 19C9.37197 19.5681 9.20533 20.1239 8.89118 20.5972C8.57702 21.0705 8.12948 21.4399 7.60524 21.6587C7.08099 21.8774 6.50362 21.9357 5.94623 21.8261C5.38885 21.7165 4.87653 21.4439 4.47415 21.0429C4.07178 20.642 3.79744 20.1306 3.68589 19.5736C3.57434 19.0166 3.63058 18.439 3.84751 17.914C4.06444 17.389 4.43228 16.9402 4.90447 16.6244C5.37665 16.3086 5.93193 16.14 6.49999 16.14C7.25943 16.14 7.98792 16.441 8.52586 16.9771C9.0638 17.5131 9.36734 18.2406 9.36999 19" fill="#96CCEE"/>
<path d="M20 15.91C19.8793 15.7891 19.7359 15.6931 19.578 15.6276C19.4201 15.5622 19.2509 15.5285 19.08 15.5285C18.9091 15.5285 18.7399 15.5622 18.582 15.6276C18.4242 15.6931 18.2807 15.7891 18.16 15.91L17.5 16.57C17.4374 16.6336 17.3626 16.6841 17.2802 16.7185C17.1978 16.7528 17.1093 16.7703 17.02 16.77C16.932 16.7713 16.8448 16.7542 16.7638 16.7198C16.6829 16.6853 16.61 16.6343 16.55 16.57L15.88 15.91C15.7592 15.7866 15.6152 15.6881 15.4564 15.6203C15.2975 15.5525 15.1269 15.5166 14.9541 15.5148C14.7814 15.5129 14.61 15.5451 14.4498 15.6095C14.2895 15.6739 14.1434 15.7692 14.02 15.89C13.8966 16.0108 13.7981 16.1548 13.7303 16.3136C13.6625 16.4725 13.6266 16.6431 13.6248 16.8159C13.6229 16.9886 13.6551 17.16 13.7195 17.3203C13.7839 17.4805 13.8792 17.6266 14 17.75L14.67 18.41C14.794 18.537 14.8634 18.7075 14.8634 18.885C14.8634 19.0625 14.794 19.233 14.67 19.36L14 20C13.8792 20.1208 13.7834 20.2643 13.718 20.4221C13.6526 20.58 13.6189 20.7491 13.6189 20.92C13.6189 21.0909 13.6526 21.2601 13.718 21.4179C13.7834 21.5758 13.8792 21.7192 14 21.84C14.244 22.084 14.5749 22.2211 14.92 22.2211C15.0909 22.2211 15.2601 22.1874 15.4179 22.122C15.5758 22.0567 15.7192 21.9608 15.84 21.84L16.51 21.17C16.5763 21.1105 16.6538 21.0649 16.7379 21.0357C16.822 21.0065 16.9111 20.9944 17 21C17.1782 21.0009 17.3495 21.0687 17.48 21.19L18.14 21.86C18.2621 21.9821 18.4071 22.079 18.5667 22.1451C18.7263 22.2112 18.8973 22.2452 19.07 22.2452C19.2427 22.2452 19.4137 22.2112 19.5733 22.1451C19.7329 22.079 19.8779 21.9821 20 21.86C20.1221 21.7379 20.219 21.5929 20.2851 21.4333C20.3512 21.2737 20.3852 21.1027 20.3852 20.93C20.3852 20.7573 20.3512 20.5863 20.2851 20.4267C20.219 20.2671 20.1221 20.1221 20 20L19.34 19.34C19.2709 19.2763 19.2158 19.199 19.1781 19.113C19.1403 19.0269 19.1209 18.934 19.1209 18.84C19.1209 18.746 19.1403 18.6531 19.1781 18.567C19.2158 18.481 19.2709 18.4037 19.34 18.34L20 17.68C20.2235 17.4395 20.3478 17.1233 20.3478 16.795C20.3478 16.4667 20.2235 16.1505 20 15.91V15.91Z" fill="#F94060"/>
<path d="M9.99999 2.62999C9.87925 2.50904 9.73584 2.41309 9.57798 2.34763C9.42012 2.28216 9.25089 2.24846 9.07999 2.24846C8.90909 2.24846 8.73987 2.28216 8.58201 2.34763C8.42414 2.41309 8.28074 2.50904 8.15999 2.62999L7.48999 3.29999C7.42534 3.36305 7.3486 3.41239 7.2644 3.44504C7.18019 3.47769 7.09026 3.49298 6.99999 3.48999C6.82182 3.48913 6.65048 3.42131 6.51999 3.29999L5.85999 2.62999C5.73918 2.50786 5.59549 2.41072 5.43713 2.34412C5.27878 2.27752 5.10885 2.24277 4.93706 2.24184C4.76528 2.24091 4.59499 2.27383 4.43592 2.33871C4.27685 2.40359 4.13212 2.49917 4.00999 2.61999C3.76334 2.86399 3.62372 3.19597 3.62185 3.54292C3.61997 3.88986 3.75599 4.22334 3.99999 4.46999L4.65999 5.12999C4.73046 5.19284 4.78684 5.26987 4.82545 5.35604C4.86405 5.44221 4.88401 5.53557 4.88401 5.62999C4.88401 5.72441 4.86405 5.81776 4.82545 5.90393C4.78684 5.9901 4.73046 6.06714 4.65999 6.12999L3.99999 6.74999C3.87918 6.87212 3.7836 7.01685 3.71872 7.17591C3.65383 7.33498 3.62092 7.50527 3.62185 7.67706C3.62277 7.84885 3.65753 8.01877 3.72413 8.17713C3.79073 8.33548 3.88786 8.47917 4.00999 8.59999C4.13212 8.7208 4.27685 8.81638 4.43592 8.88127C4.59499 8.94615 4.76528 8.97906 4.93706 8.97814C5.10885 8.97721 5.27878 8.94245 5.43713 8.87585C5.59549 8.80925 5.73918 8.71212 5.85999 8.58999L6.51999 7.92999C6.58445 7.86221 6.66201 7.80825 6.74796 7.77138C6.83391 7.7345 6.92646 7.71549 7.01999 7.71549C7.11352 7.71549 7.20607 7.7345 7.29203 7.77138C7.37798 7.80825 7.45554 7.86221 7.51999 7.92999L8.17999 8.58999C8.43051 8.79424 8.74813 8.89784 9.07089 8.88058C9.39366 8.86332 9.69842 8.72644 9.92573 8.49664C10.153 8.26684 10.2866 7.9606 10.3003 7.63766C10.314 7.31472 10.207 6.99826 9.99999 6.74999L9.32999 6.08999C9.26091 6.02631 9.20576 5.949 9.16805 5.86294C9.13033 5.77689 9.11086 5.68395 9.11086 5.58999C9.11086 5.49603 9.13033 5.40309 9.16805 5.31703C9.20576 5.23098 9.26091 5.15367 9.32999 5.08999L9.99999 4.46999C10.1209 4.34924 10.2169 4.20584 10.2824 4.04797C10.3478 3.89011 10.3815 3.72089 10.3815 3.54999C10.3815 3.37909 10.3478 3.20987 10.2824 3.052C10.2169 2.89414 10.1209 2.75073 9.99999 2.62999Z" fill="#F94060"/>
<path d="M6.49998 16.14C6.11826 16.141 5.74069 16.2193 5.38998 16.37C5.90817 16.5887 6.35038 16.9553 6.6613 17.424C6.97223 17.8926 7.13806 18.4426 7.13806 19.005C7.13806 19.5674 6.97223 20.1174 6.6613 20.5861C6.35038 21.0547 5.90817 21.4213 5.38998 21.64C5.74443 21.79 6.12511 21.8682 6.50998 21.87C6.90046 21.8931 7.29153 21.8361 7.65918 21.7026C8.02683 21.569 8.36331 21.3617 8.64794 21.0934C8.93257 20.8251 9.15935 20.5015 9.31436 20.1423C9.46936 19.7832 9.54932 19.3962 9.54932 19.005C9.54932 18.6139 9.46936 18.2268 9.31436 17.8677C9.15935 17.5086 8.93257 17.1849 8.64794 16.9166C8.36331 16.6483 8.02683 16.441 7.65918 16.3075C7.29153 16.1739 6.90046 16.1169 6.50998 16.14" fill="#6F73D5"/>
</svg>
