<svg width="24" height="24" viewBox="0 0 24 24" fill="none" xmlns="http://www.w3.org/2000/svg">
<path d="M9.84999 4.28001C9.92967 4.27391 10.0098 4.28406 10.0854 4.30985C10.161 4.33563 10.2306 4.37651 10.29 4.43001C10.3476 4.4815 10.3934 4.54474 10.4245 4.61547C10.4555 4.6862 10.4711 4.76277 10.47 4.84001C10.47 5.95001 10.47 8.27001 10.47 9.25001C10.4688 9.38034 10.4238 9.50647 10.3421 9.60807C10.2605 9.70966 10.147 9.7808 10.02 9.81001C9.42242 9.96662 8.87843 10.2821 8.44579 10.7231C8.01315 11.1641 7.70802 11.714 7.56282 12.3144C7.41761 12.9148 7.43775 13.5434 7.62109 14.1333C7.80443 14.7232 8.14413 15.2525 8.6041 15.6648C9.06408 16.0772 9.62715 16.3572 10.2335 16.4753C10.8399 16.5933 11.4669 16.5449 12.048 16.3352C12.629 16.1255 13.1425 15.7623 13.5337 15.2843C13.9249 14.8062 14.1794 14.2311 14.27 13.62C14.2848 13.4848 14.3493 13.3598 14.4508 13.2693C14.5524 13.1788 14.6839 13.1292 14.82 13.13C15.82 13.13 18.16 13.13 19.22 13.13C19.2933 13.1292 19.366 13.144 19.4332 13.1733C19.5004 13.2026 19.5606 13.2458 19.61 13.3C19.6609 13.353 19.7004 13.4158 19.7262 13.4845C19.752 13.5533 19.7635 13.6266 19.76 13.7C19.6513 15.3857 19.0646 17.0056 18.0686 18.3699C17.0725 19.7342 15.7084 20.7865 14.136 21.4036C12.5635 22.0206 10.8478 22.1769 9.18968 21.8542C7.5316 21.5314 5.9998 20.7429 4.77364 19.581C3.54749 18.4191 2.67774 16.932 2.26623 15.2936C1.85473 13.6553 1.91851 11.9337 2.4501 10.3303C2.9817 8.72691 3.9591 7.30816 5.26786 6.24019C6.57663 5.17222 8.16257 4.49922 9.83999 4.30001L9.84999 4.28001Z" fill="#96CCEE"/>
<path d="M13.5 2.34L13.12 2.41V7C13.1211 7.1392 13.1722 7.27337 13.264 7.37802C13.3558 7.48266 13.4821 7.5508 13.62 7.57C14.345 7.67061 15.0177 8.00383 15.5371 8.51958C16.0564 9.03533 16.3943 9.70573 16.5 10.43C16.5171 10.5661 16.5836 10.6911 16.6868 10.7815C16.7901 10.8718 16.9228 10.9211 17.06 10.92C18.06 10.92 20.35 10.92 21.42 10.92C21.4987 10.9212 21.5768 10.9058 21.6492 10.8748C21.7216 10.8438 21.7866 10.7978 21.84 10.74C21.8919 10.6837 21.932 10.6174 21.9578 10.5453C21.9836 10.4731 21.9945 10.3965 21.99 10.32C21.8524 8.13804 20.9156 6.08329 19.3586 4.54845C17.8017 3.01362 15.7337 2.10633 13.55 2C13.4 2 13.64 2.34 13.5 2.34Z" fill="#FFEABB"/>
<path d="M13.12 2.19999C13.1187 2.17421 13.1226 2.14843 13.1315 2.12421C13.1404 2.09999 13.1542 2.07784 13.172 2.05913C13.1898 2.04041 13.2112 2.02552 13.2349 2.01535C13.2586 2.00518 13.2842 1.99996 13.31 1.99999H13.66C15.7757 1.99249 17.815 2.79031 19.3639 4.2315C20.9128 5.67269 21.8553 7.64926 22 9.75999V10.29C22.0045 10.3665 21.9936 10.4431 21.9678 10.5153C21.942 10.5874 21.902 10.6537 21.85 10.71C21.7966 10.7678 21.7316 10.8138 21.6592 10.8448C21.5868 10.8758 21.5087 10.8912 21.43 10.89H18.7C18.7012 9.11461 18.1702 7.37963 17.1755 5.90904C16.1809 4.43844 14.7683 3.29976 13.12 2.63999V2.19999Z" fill="#F7BF75"/>
<path d="M17.07 13.11C17.0687 15.2311 16.3091 17.2819 14.9282 18.8921C13.5473 20.5022 11.6362 21.5655 9.54001 21.89C9.98982 21.9618 10.4445 21.9985 10.9 22C13.1581 21.9972 15.3307 21.1361 16.9777 19.5913C18.6247 18.0464 19.6229 15.9333 19.77 13.68C19.7717 13.5326 19.7182 13.3899 19.62 13.28C19.5687 13.229 19.5079 13.1886 19.4409 13.1611C19.374 13.1337 19.3023 13.1197 19.23 13.12L17.07 13.11Z" fill="#6F73D5"/>
</svg>
