<svg width="24" height="24" viewBox="0 0 24 24" fill="none" xmlns="http://www.w3.org/2000/svg">
<path d="M2.24001 9.47003V18.76C2.24001 19.1313 2.3875 19.4874 2.65006 19.75C2.91261 20.0125 3.2687 20.16 3.64001 20.16H20.36C20.7313 20.16 21.0874 20.0125 21.35 19.75C21.6125 19.4874 21.76 19.1313 21.76 18.76V9.47003H2.24001Z" fill="#9293A5"/>
<path d="M5.23 15.81H8.05C8.37622 15.81 8.68907 15.9396 8.91974 16.1703C9.15041 16.4009 9.28 16.7138 9.28 17.04C9.28 17.3662 9.15041 17.6791 8.91974 17.9097C8.68907 18.1404 8.37622 18.27 8.05 18.27H5.23C4.90378 18.27 4.59093 18.1404 4.36026 17.9097C4.12959 17.6791 4 17.3662 4 17.04C4 16.7138 4.12959 16.4009 4.36026 16.1703C4.59093 15.9396 4.90378 15.81 5.23 15.81" fill="#F94060"/>
<path d="M2.24001 9.47003V12.21C2.97271 12.9588 3.89041 13.5004 4.90001 13.78C9.17813 14.9358 13.672 15.0422 18 14.09C18.1785 14.0443 18.3651 14.04 18.5455 14.0774C18.726 14.1148 18.8955 14.1929 19.0411 14.3058C19.1868 14.4186 19.3047 14.5633 19.386 14.7286C19.4673 14.894 19.5097 15.0758 19.51 15.26V18.76C19.51 19.1313 19.3625 19.4874 19.1 19.75C18.8374 20.0125 18.4813 20.16 18.11 20.16H20.41C20.7813 20.16 21.1374 20.0125 21.4 19.75C21.6625 19.4874 21.81 19.1313 21.81 18.76V9.47003H2.24001Z" fill="#6F7188"/>
<path d="M20.92 5.29999H2.66C2.57028 5.30124 2.48172 5.3205 2.39958 5.35662C2.31745 5.39275 2.2434 5.44501 2.18184 5.51029C2.12029 5.57558 2.07247 5.65257 2.04123 5.73669C2.01 5.82081 1.99598 5.91035 2 5.99999V7.99999C1.99623 8.97486 2.31198 9.92411 2.89892 10.7025C3.48587 11.4809 4.31169 12.0455 5.25 12.31C9.66735 13.5297 14.3327 13.5297 18.75 12.31C19.6883 12.0455 20.5141 11.4809 21.1011 10.7025C21.688 9.92411 22.0038 8.97486 22 7.99999V6.61999C22 5.77999 21.51 5.29999 20.92 5.29999Z" fill="#EAE2F9"/>
<path d="M2.7 5.29999C2.51212 5.30107 2.33232 5.37659 2.2 5.50999C2.13561 5.57415 2.08473 5.65057 2.05038 5.73473C2.01603 5.81889 1.9989 5.90909 2 5.99999V7.99999C1.99988 8.98354 2.32271 9.93992 2.91889 10.7222C3.51508 11.5044 4.35163 12.0693 5.3 12.33C9.68608 13.5299 14.3139 13.5299 18.7 12.33C19.6484 12.0693 20.4849 11.5044 21.0811 10.7222C21.6773 9.93992 22.0001 8.98354 22 7.99999V5.99999C22.0011 5.90909 21.984 5.81889 21.9496 5.73473C21.9153 5.65057 21.8644 5.57415 21.8 5.50999C21.6677 5.37659 21.4879 5.30107 21.3 5.29999H2.7Z" fill="#EAE2F9"/>
<path d="M19.08 5.29999V7.99999C19.0801 8.98354 18.7573 9.93992 18.1611 10.7222C17.5649 11.5044 16.7284 12.0693 15.78 12.33C14.0681 12.7967 12.3117 13.0816 10.54 13.18C13.2881 13.3423 16.0443 13.0552 18.7 12.33C19.6484 12.0693 20.4849 11.5044 21.0811 10.7222C21.6773 9.93992 22.0001 8.98354 22 7.99999V5.99999C22.0011 5.90909 21.984 5.81889 21.9496 5.73473C21.9153 5.65057 21.8644 5.57415 21.8 5.50999C21.6677 5.37659 21.4879 5.30107 21.3 5.29999H19.08Z" fill="#C0C3EE"/>
<path fill-rule="evenodd" clip-rule="evenodd" d="M7.63001 4.54C7.63003 4.35678 7.55823 4.18086 7.43001 4.05C7.30015 3.91901 7.12442 3.84369 6.94001 3.84H4.69001C4.50212 3.84108 4.32232 3.9166 4.19001 4.05C4.06178 4.18086 3.98998 4.35678 3.99001 4.54V5.91C3.98998 6.09321 4.06178 6.26913 4.19001 6.4C4.32232 6.5334 4.50212 6.60891 4.69001 6.61H6.94001C7.12442 6.6063 7.30015 6.53099 7.43001 6.4C7.55823 6.26913 7.63003 6.09321 7.63001 5.91V4.54Z" fill="#9293A5"/>
<path d="M17.06 3.84001H19.31C19.4956 3.84001 19.6737 3.91376 19.805 4.04503C19.9362 4.17631 20.01 4.35436 20.01 4.54001V5.91001C20.01 6.09566 19.9362 6.27371 19.805 6.40498C19.6737 6.53626 19.4956 6.61001 19.31 6.61001H17.06C16.8743 6.61001 16.6963 6.53626 16.565 6.40498C16.4337 6.27371 16.36 6.09566 16.36 5.91001V4.54001C16.3587 4.44771 16.3758 4.35608 16.4105 4.27054C16.4452 4.18501 16.4967 4.1073 16.562 4.04203C16.6273 3.97676 16.705 3.92525 16.7905 3.89055C16.8761 3.85585 16.9677 3.83866 17.06 3.84001V3.84001Z" fill="#9293A5"/>
<path fill-rule="evenodd" clip-rule="evenodd" d="M7.63 4.54C7.63002 4.35606 7.55764 4.17952 7.42852 4.04852C7.2994 3.91753 7.12391 3.84262 6.94 3.84H6V6.61H6.93C7.11391 6.60737 7.2894 6.53246 7.41852 6.40147C7.54764 6.27048 7.62002 6.09393 7.62 5.91L7.63 4.54Z" fill="#6F7188"/>
<path fill-rule="evenodd" clip-rule="evenodd" d="M20 4.54C20 4.35606 19.9276 4.17952 19.7985 4.04852C19.6694 3.91753 19.4939 3.84262 19.31 3.84H18.38V6.61H19.31C19.4939 6.60737 19.6694 6.53246 19.7985 6.40147C19.9276 6.27048 20 6.09393 20 5.91V4.54Z" fill="#6F7188"/>
<path fill-rule="evenodd" clip-rule="evenodd" d="M15.67 18.18H18.57C18.7026 18.18 18.8298 18.1273 18.9236 18.0335C19.0173 17.9398 19.07 17.8126 19.07 17.68C19.07 17.5474 19.0173 17.4202 18.9236 17.3264C18.8298 17.2327 18.7026 17.18 18.57 17.18H15.67C15.5374 17.18 15.4102 17.2327 15.3164 17.3264C15.2227 17.4202 15.17 17.5474 15.17 17.68C15.17 17.8126 15.2227 17.9398 15.3164 18.0335C15.4102 18.1273 15.5374 18.18 15.67 18.18Z" fill="#EAE2F9"/>
<path fill-rule="evenodd" clip-rule="evenodd" d="M15.67 16.37H17.08C17.2126 16.37 17.3398 16.3173 17.4336 16.2235C17.5273 16.1298 17.58 16.0026 17.58 15.87C17.58 15.7374 17.5273 15.6102 17.4336 15.5164C17.3398 15.4227 17.2126 15.37 17.08 15.37H15.67C15.5374 15.37 15.4102 15.4227 15.3164 15.5164C15.2227 15.6102 15.17 15.7374 15.17 15.87C15.17 16.0026 15.2227 16.1298 15.3164 16.2235C15.4102 16.3173 15.5374 16.37 15.67 16.37Z" fill="#EAE2F9"/>
</svg>
