<svg width="24" height="24" viewBox="0 0 24 24" fill="none" xmlns="http://www.w3.org/2000/svg">
<path fill-rule="evenodd" clip-rule="evenodd" d="M5.14001 15.79C5.14001 15.7178 5.12578 15.6462 5.09814 15.5795C5.0705 15.5128 5.02999 15.4522 4.97892 15.4011C4.92784 15.35 4.86721 15.3095 4.80048 15.2819C4.73376 15.2542 4.66224 15.24 4.59001 15.24H2.59001C2.51778 15.24 2.44626 15.2542 2.37953 15.2819C2.3128 15.3095 2.25217 15.35 2.2011 15.4011C2.15003 15.4522 2.10951 15.5128 2.08187 15.5795C2.05423 15.6462 2.04001 15.7178 2.04001 15.79V20.24H5.14001V15.79Z" fill="#96CCEE"/>
<path fill-rule="evenodd" clip-rule="evenodd" d="M10.76 11.36C10.76 11.2141 10.7021 11.0742 10.5989 10.9711C10.4958 10.8679 10.3559 10.81 10.21 10.81H8.21C8.06413 10.81 7.92424 10.8679 7.82109 10.9711C7.71795 11.0742 7.66 11.2141 7.66 11.36V20.24H10.8L10.76 11.36Z" fill="#96CCEE"/>
<path fill-rule="evenodd" clip-rule="evenodd" d="M16.38 9.14997C16.38 9.00411 16.3221 8.86421 16.2189 8.76107C16.1158 8.65792 15.9759 8.59998 15.83 8.59998H13.83C13.6841 8.59998 13.5442 8.65792 13.4411 8.76107C13.3379 8.86421 13.28 9.00411 13.28 9.14997V20.24H16.42L16.38 9.14997Z" fill="#96CCEE"/>
<path fill-rule="evenodd" clip-rule="evenodd" d="M22 6.93C22 6.78414 21.942 6.64424 21.8389 6.5411C21.7358 6.43795 21.5959 6.38 21.45 6.38H19.45C19.3041 6.38 19.1642 6.43795 19.0611 6.5411C18.9579 6.64424 18.9 6.78414 18.9 6.93V20.24H22V6.93Z" fill="#96CCEE"/>
<path d="M4.66001 13.18C4.66001 13.3956 4.59608 13.6063 4.47631 13.7856C4.35654 13.9648 4.18631 14.1045 3.98714 14.187C3.78796 14.2695 3.5688 14.2911 3.35736 14.2491C3.14592 14.207 2.9517 14.1032 2.79927 13.9508C2.64683 13.7983 2.54301 13.6041 2.50096 13.3927C2.4589 13.1812 2.48048 12.9621 2.56298 12.7629C2.64548 12.5637 2.78519 12.3935 2.96444 12.2737C3.14369 12.1539 3.35443 12.09 3.57001 12.09C3.71352 12.0887 3.85586 12.116 3.98871 12.1703C4.12156 12.2246 4.24225 12.3048 4.34373 12.4063C4.44522 12.5078 4.52545 12.6285 4.57976 12.7613C4.63406 12.8942 4.66135 13.0365 4.66001 13.18Z" fill="#F94060"/>
<path d="M10.27 8.73001C10.268 8.94318 10.203 9.151 10.0831 9.32728C9.96328 9.50357 9.79393 9.64044 9.59642 9.72065C9.39891 9.80086 9.18208 9.82082 8.97324 9.77803C8.7644 9.73523 8.5729 9.63159 8.42286 9.48016C8.27282 9.32873 8.17095 9.13628 8.13008 8.92706C8.08921 8.71784 8.11117 8.5012 8.1932 8.30444C8.27523 8.10768 8.41366 7.93959 8.59104 7.82136C8.76842 7.70312 8.97682 7.64002 9.19 7.64001C9.33267 7.64001 9.47393 7.66827 9.60562 7.72317C9.73731 7.77807 9.85681 7.85852 9.95723 7.95987C10.0577 8.06122 10.137 8.18146 10.1907 8.31364C10.2444 8.44583 10.2713 8.58735 10.27 8.73001Z" fill="#F94060"/>
<path d="M15.89 6.50999C15.89 6.7236 15.8267 6.9324 15.708 7.11001C15.5893 7.28761 15.4207 7.42604 15.2233 7.50778C15.026 7.58953 14.8088 7.61091 14.5993 7.56924C14.3898 7.52757 14.1974 7.42471 14.0463 7.27367C13.8953 7.12263 13.7924 6.93019 13.7508 6.72069C13.7091 6.51119 13.7305 6.29404 13.8122 6.09669C13.894 5.89935 14.0324 5.73068 14.21 5.61201C14.3876 5.49333 14.5964 5.42999 14.81 5.42999C15.0964 5.42999 15.3711 5.54378 15.5737 5.74632C15.7762 5.94886 15.89 6.22356 15.89 6.50999Z" fill="#F94060"/>
<path d="M21.51 4.33999C21.512 4.55641 21.4495 4.76852 21.3305 4.9493C21.2115 5.13007 21.0413 5.27133 20.8418 5.35506C20.6422 5.4388 20.4222 5.46123 20.2098 5.41949C19.9975 5.37775 19.8023 5.27373 19.6493 5.12069C19.4963 4.96766 19.3922 4.77252 19.3505 4.56016C19.3088 4.34779 19.3312 4.1278 19.4149 3.92823C19.4987 3.72866 19.6399 3.55853 19.8207 3.43952C20.0015 3.32051 20.2136 3.25802 20.43 3.25999C20.7164 3.25999 20.9911 3.37378 21.1937 3.57632C21.3962 3.77886 21.51 4.05356 21.51 4.33999Z" fill="#F94060"/>
<path fill-rule="evenodd" clip-rule="evenodd" d="M5.14001 15.79C5.14137 15.7174 5.12807 15.6453 5.10091 15.578C5.07375 15.5106 5.03329 15.4494 4.98195 15.3981C4.9306 15.3467 4.86943 15.3063 4.80208 15.2791C4.73474 15.252 4.66261 15.2387 4.59001 15.24H3.92001V20.24H5.14001V15.79Z" fill="#6F73D5"/>
<path fill-rule="evenodd" clip-rule="evenodd" d="M10.76 11.36C10.76 11.2141 10.7021 11.0742 10.5989 10.9711C10.4958 10.8679 10.3559 10.81 10.21 10.81H9.54001V20.24H10.76V11.36Z" fill="#6F73D5"/>
<path fill-rule="evenodd" clip-rule="evenodd" d="M16.38 9.15001C16.3803 9.07768 16.3663 9.006 16.3389 8.93908C16.3114 8.87216 16.271 8.81131 16.22 8.76001C16.1702 8.70709 16.1096 8.66543 16.0423 8.63783C15.975 8.61024 15.9027 8.59734 15.83 8.60001H15.16V20.24H16.38V9.15001Z" fill="#6F73D5"/>
<path fill-rule="evenodd" clip-rule="evenodd" d="M22 6.93C22 6.78414 21.9421 6.64424 21.8389 6.5411C21.7358 6.43795 21.5959 6.38 21.45 6.38H20.78V20.24H22V6.93Z" fill="#6F73D5"/>
<path fill-rule="evenodd" clip-rule="evenodd" d="M2 20.74H22C22.1326 20.74 22.2598 20.6873 22.3536 20.5935C22.4473 20.4998 22.5 20.3726 22.5 20.24C22.5 20.1074 22.4473 19.9802 22.3536 19.8864C22.2598 19.7927 22.1326 19.74 22 19.74H2C1.86739 19.74 1.74021 19.7927 1.64645 19.8864C1.55268 19.9802 1.5 20.1074 1.5 20.24C1.5 20.3726 1.55268 20.4998 1.64645 20.5935C1.74021 20.6873 1.86739 20.74 2 20.74Z" fill="#6F73D5"/>
</svg>
