<svg width="24" height="24" viewBox="0 0 24 24" fill="none" xmlns="http://www.w3.org/2000/svg">
<path d="M5.39 2H18.61C18.846 2 19.0724 2.09377 19.2393 2.26067C19.4062 2.42758 19.5 2.65396 19.5 2.89V21.11C19.5 21.346 19.4062 21.5724 19.2393 21.7393C19.0724 21.9062 18.846 22 18.61 22H5.39C5.15396 22 4.92758 21.9062 4.76067 21.7393C4.59377 21.5724 4.5 21.346 4.5 21.11V2.89C4.5 2.65396 4.59377 2.42758 4.76067 2.26067C4.92758 2.09377 5.15396 2 5.39 2Z" fill="#9293A5"/>
<path d="M15.15 2V22H18.61C18.846 22 19.0724 21.9062 19.2393 21.7393C19.4062 21.5724 19.5 21.346 19.5 21.11V2.89C19.5 2.65396 19.4062 2.42758 19.2393 2.26067C19.0724 2.09377 18.846 2 18.61 2H15.15Z" fill="#6F7188"/>
<path d="M17.11 10.83H6.89C6.5531 10.83 6.28 11.1031 6.28 11.44V19.56C6.28 19.8969 6.5531 20.17 6.89 20.17H17.11C17.4469 20.17 17.72 19.8969 17.72 19.56V11.44C17.72 11.1031 17.4469 10.83 17.11 10.83Z" fill="#EAE2F9"/>
<path fill-rule="evenodd" clip-rule="evenodd" d="M17.72 4.61C17.72 4.52989 17.7042 4.45057 17.6736 4.37656C17.6429 4.30255 17.598 4.23531 17.5413 4.17866C17.4847 4.12202 17.4174 4.07709 17.3434 4.04643C17.2694 4.01578 17.1901 4 17.11 4H6.89C6.80989 4 6.73057 4.01578 6.65656 4.04643C6.58256 4.07709 6.51531 4.12202 6.45867 4.17866C6.40202 4.23531 6.35709 4.30255 6.32643 4.37656C6.29578 4.45057 6.28 4.52989 6.28 4.61V8.1C6.2798 8.18006 6.29562 8.25935 6.32653 8.3332C6.35745 8.40704 6.40283 8.47396 6.46 8.53C6.57446 8.64365 6.72871 8.70822 6.89 8.71H17.11C17.2713 8.70822 17.4255 8.64365 17.54 8.53C17.5972 8.47396 17.6426 8.40704 17.6735 8.3332C17.7044 8.25935 17.7202 8.18006 17.72 8.1V4.61Z" fill="#EAE2F9"/>
<path fill-rule="evenodd" clip-rule="evenodd" d="M17.72 4.61C17.72 4.52989 17.7042 4.45057 17.6736 4.37656C17.6429 4.30255 17.598 4.23531 17.5413 4.17866C17.4847 4.12202 17.4174 4.07709 17.3434 4.04643C17.2694 4.01578 17.1901 4 17.11 4H15.11V8.71H17.11C17.2713 8.70822 17.4255 8.64365 17.54 8.53C17.5972 8.47396 17.6426 8.40704 17.6735 8.3332C17.7044 8.25935 17.7202 8.18006 17.72 8.1V4.61Z" fill="#C0C3EE"/>
<path fill-rule="evenodd" clip-rule="evenodd" d="M12.76 16.52H14.65V14.52H12.76V16.52ZM9.76 16.52H11.76V14.52H9.76V16.52ZM15.69 15.16H17.76V16.16H15.65V20.16H14.65V17.52H12.76V20.17H11.76V17.52H9.76V20.17H8.76V17.52H6.28V16.52H8.72V14.52H6.28V13.52H8.72V10.83H9.72V13.48H11.72V10.83H12.72V13.48H14.61V10.83H15.61L15.69 15.16Z" fill="#C0C3EE"/>
<path fill-rule="evenodd" clip-rule="evenodd" d="M14.38 7.77002H15.79C15.9226 7.77002 16.0498 7.71734 16.1436 7.62357C16.2373 7.5298 16.29 7.40263 16.29 7.27002C16.2874 7.13821 16.2339 7.01252 16.1407 6.9193C16.0475 6.82608 15.9218 6.77258 15.79 6.77002H14.38C14.2474 6.77002 14.1202 6.8227 14.0265 6.91647C13.9327 7.01023 13.88 7.13741 13.88 7.27002C13.88 7.40263 13.9327 7.5298 14.0265 7.62357C14.1202 7.71734 14.2474 7.77002 14.38 7.77002Z" fill="#9293A5"/>
<path fill-rule="evenodd" clip-rule="evenodd" d="M17.72 11.44C17.72 11.2782 17.6557 11.1231 17.5413 11.0087C17.4269 10.8943 17.2718 10.83 17.11 10.83H15.11V20.17H17.11C17.2718 20.17 17.4269 20.1057 17.5413 19.9914C17.6557 19.877 17.72 19.7218 17.72 19.56V11.44Z" fill="#F94060"/>
<path fill-rule="evenodd" clip-rule="evenodd" d="M15.65 15.16H17.72V16.16H15.65V20.17H15.15V10.83H15.65V15.16Z" fill="#D62657"/>
</svg>
