<svg width="24" height="24" viewBox="0 0 24 24" fill="none" xmlns="http://www.w3.org/2000/svg">
<path d="M10.79 3.13V15.13L16.79 17.13V3.78C16.79 3.60761 16.7215 3.44228 16.5996 3.32039C16.4777 3.19849 16.3124 3.13 16.14 3.13H10.79Z" fill="#EAE2F9"/>
<path d="M16.83 4.43005V17.1201L18.48 17.6601V5.08005C18.48 4.90766 18.4115 4.74233 18.2896 4.62043C18.1677 4.49854 18.0024 4.43005 17.83 4.43005H16.83Z" fill="#C0C3EE"/>
<path d="M5.58 2.73C5.43514 2.75367 5.30338 2.82797 5.20817 2.93967C5.11295 3.05137 5.06044 3.19322 5.06 3.34V21.34C5.06 21.515 5.12953 21.6829 5.25331 21.8067C5.37708 21.9305 5.54495 22 5.72 22H18.28C18.456 22 18.6249 21.9308 18.7503 21.8073C18.8756 21.6838 18.9474 21.516 18.95 21.34V15.34C18.9479 15.1875 18.8988 15.0393 18.8093 14.9158C18.7198 14.7923 18.5943 14.6995 18.45 14.65L10.79 12.14V2.66C10.7899 2.57277 10.7711 2.48657 10.7349 2.40721C10.6987 2.32786 10.6459 2.2572 10.58 2.2C10.5136 2.14213 10.4353 2.09959 10.3506 2.07539C10.2659 2.0512 10.1769 2.04594 10.09 2.06L5.58 2.73Z" fill="#FFEABB"/>
<path d="M11.64 18.1201H16C16.2652 18.1201 16.5196 18.2254 16.7071 18.4129C16.8946 18.6005 17 18.8548 17 19.1201C17 19.3853 16.8946 19.6396 16.7071 19.8272C16.5196 20.0147 16.2652 20.1201 16 20.1201H11.64C11.3748 20.1201 11.1204 20.0147 10.9329 19.8272C10.7454 19.6396 10.64 19.3853 10.64 19.1201C10.64 18.8548 10.7454 18.6005 10.9329 18.4129C11.1204 18.2254 11.3748 18.1201 11.64 18.1201" fill="#F94060"/>
<path d="M10.79 2.66003C10.7899 2.5728 10.7711 2.4866 10.7349 2.40724C10.6987 2.32789 10.6459 2.25723 10.58 2.20003C10.514 2.14156 10.4357 2.09863 10.3509 2.0744C10.2661 2.05017 10.1769 2.04526 10.09 2.06003L5.57 2.73003C5.426 2.75555 5.29536 2.83037 5.20048 2.94166C5.1056 3.05296 5.0524 3.1938 5.05 3.34003V4.44003L8.21 4.00003C8.32202 3.98258 8.43649 3.98976 8.54545 4.02106C8.65441 4.05237 8.75523 4.10705 8.8409 4.1813C8.92657 4.25554 8.99503 4.34757 9.0415 4.45098C9.08798 4.55438 9.11135 4.66667 9.11 4.78003V13.48C9.11136 13.6455 9.16403 13.8066 9.26075 13.9409C9.35746 14.0752 9.49346 14.1762 9.65 14.23L16.73 16.55C16.8874 16.5993 17.0248 16.6978 17.122 16.831C17.2192 16.9642 17.2711 17.1251 17.27 17.29V22H18.27C18.445 22 18.6129 21.9305 18.7367 21.8067C18.8605 21.6829 18.93 21.5151 18.93 21.34V15.34C18.9316 15.188 18.8851 15.0394 18.7971 14.9154C18.7091 14.7915 18.5841 14.6986 18.44 14.65L10.78 12.14L10.79 2.66003Z" fill="#F7BF75"/>
<path d="M10.79 5.09003H14.51C14.6426 5.09003 14.7698 5.1427 14.8636 5.23647C14.9573 5.33024 15.01 5.45742 15.01 5.59003C15.01 5.72264 14.9573 5.84981 14.8636 5.94358C14.7698 6.03735 14.6426 6.09003 14.51 6.09003H10.79V5.09003ZM10.79 6.81003H11.69C11.8226 6.81003 11.9498 6.86271 12.0436 6.95647C12.1373 7.05024 12.19 7.17742 12.19 7.31003C12.19 7.44263 12.1373 7.56981 12.0436 7.66358C11.9498 7.75735 11.8226 7.81003 11.69 7.81003H10.79V6.81003ZM13.26 7.81003H14.51C14.6426 7.81003 14.7698 7.75735 14.8636 7.66358C14.9573 7.56981 15.01 7.44263 15.01 7.31003C15.01 7.17742 14.9573 7.05024 14.8636 6.95647C14.7698 6.86271 14.6426 6.81003 14.51 6.81003H13.26C13.1274 6.81003 13.0002 6.86271 12.9065 6.95647C12.8127 7.05024 12.76 7.17742 12.76 7.31003C12.76 7.44263 12.8127 7.56981 12.9065 7.66358C13.0002 7.75735 13.1274 7.81003 13.26 7.81003ZM10.79 8.52003H14.51C14.6375 8.52248 14.7592 8.57353 14.8503 8.66276C14.9414 8.75198 14.9949 8.87263 15 9.00003C15 9.13263 14.9473 9.25981 14.8536 9.35358C14.7598 9.44735 14.6326 9.50003 14.5 9.50003H10.79V8.52003ZM10.79 10.24H11.69C11.8226 10.24 11.9498 10.2927 12.0436 10.3865C12.1373 10.4802 12.19 10.6074 12.19 10.74C12.19 10.8726 12.1373 10.9998 12.0436 11.0936C11.9498 11.1873 11.8226 11.24 11.69 11.24H10.79V10.24ZM13.26 11.24H14.51C14.6426 11.24 14.7698 11.1873 14.8636 11.0936C14.9573 10.9998 15.01 10.8726 15.01 10.74C15.01 10.6074 14.9573 10.4802 14.8636 10.3865C14.7698 10.2927 14.6426 10.24 14.51 10.24H13.26C13.1274 10.24 13.0002 10.2927 12.9065 10.3865C12.8127 10.4802 12.76 10.6074 12.76 10.74C12.76 10.8726 12.8127 10.9998 12.9065 11.0936C13.0002 11.1873 13.1274 11.24 13.26 11.24ZM10.79 12H14.51C14.6426 12 14.7698 12.0527 14.8636 12.1465C14.9573 12.2402 15.01 12.3674 15.01 12.5C15.01 12.6326 14.9573 12.7598 14.8636 12.8536C14.7698 12.9473 14.6426 13 14.51 13H13.31L10.79 12.17V12Z" fill="#C0C3EE"/>
<path fill-rule="evenodd" clip-rule="evenodd" d="M11.44 16.85H12.79C12.9226 16.85 13.0498 16.7974 13.1436 16.7036C13.2373 16.6098 13.29 16.4826 13.29 16.35C13.29 16.2174 13.2373 16.0903 13.1436 15.9965C13.0498 15.9027 12.9226 15.85 12.79 15.85H11.44C11.3082 15.8526 11.1825 15.9061 11.0893 15.9993C10.9961 16.0925 10.9426 16.2182 10.94 16.35C10.94 16.4826 10.9927 16.6098 11.0864 16.7036C11.1802 16.7974 11.3074 16.85 11.44 16.85Z" fill="#F94060"/>
</svg>
