<svg width="24" height="24" viewBox="0 0 24 24" fill="none" xmlns="http://www.w3.org/2000/svg">
<path d="M19 5.70998C18.9969 5.51661 18.922 5.33129 18.79 5.18998C18.6472 5.06265 18.4612 4.99468 18.27 4.99998H5.73C5.53116 5.00016 5.34052 5.07929 5.2 5.21998C5.07439 5.35255 5.00303 5.52738 5 5.70998V21.26C4.99844 21.3563 5.01622 21.4519 5.05229 21.5413C5.08837 21.6306 5.14199 21.7118 5.21 21.78C5.35052 21.9207 5.54116 21.9998 5.74 22H18.27C18.4688 21.9998 18.6595 21.9207 18.8 21.78C18.9337 21.6398 19.0089 21.4537 19.01 21.26L19 5.70998Z" fill="#EAE2F9"/>
<path d="M13.34 10C13.3321 10.2632 13.2469 10.5182 13.095 10.7332C12.943 10.9483 12.7311 11.1138 12.4857 11.2091C12.2402 11.3044 11.9722 11.3253 11.7149 11.2692C11.4577 11.2131 11.2227 11.0824 11.0392 10.8935C10.8558 10.7046 10.7321 10.4658 10.6836 10.2071C10.635 9.94827 10.6638 9.68092 10.7663 9.43839C10.8688 9.19585 11.0405 8.98889 11.2599 8.84334C11.4793 8.6978 11.7367 8.62011 12 8.62C12.1794 8.61992 12.357 8.65586 12.5222 8.72568C12.6874 8.79551 12.837 8.89781 12.962 9.02651C13.0869 9.15521 13.1848 9.30769 13.2497 9.47491C13.3147 9.64213 13.3454 9.82069 13.34 10Z" fill="#96CCEE"/>
<path d="M11.94 12.68C11.3433 12.695 10.7693 12.9118 10.3116 13.295C9.85393 13.6782 9.53964 14.2052 9.41999 14.79C9.39858 14.9092 9.41503 15.0322 9.46704 15.1416C9.51905 15.251 9.60401 15.3413 9.70999 15.4C10.4112 15.7869 11.1991 15.9899 12 15.9899C12.8009 15.9899 13.5888 15.7869 14.29 15.4C14.396 15.3413 14.4809 15.251 14.5329 15.1416C14.585 15.0322 14.6014 14.9092 14.58 14.79C14.4564 14.1961 14.1328 13.6626 13.6632 13.2786C13.1937 12.8946 12.6066 12.6833 12 12.68H11.94Z" fill="#96CCEE"/>
<path fill-rule="evenodd" clip-rule="evenodd" d="M16.1 4.83003C16.1 4.73285 16.0809 4.63662 16.0437 4.54684C16.0065 4.45706 15.952 4.37548 15.8833 4.30677C15.8146 4.23805 15.733 4.18354 15.6432 4.14636C15.5534 4.10917 15.4572 4.09003 15.36 4.09003H8.64001C8.44317 4.09065 8.25385 4.16566 8.11001 4.30003C8.0417 4.3701 7.98797 4.45302 7.95192 4.54399C7.91588 4.63497 7.89823 4.73219 7.90001 4.83003V6.17003C7.90001 6.36629 7.97797 6.55451 8.11675 6.69329C8.25553 6.83206 8.44375 6.91003 8.64001 6.91003H15.36C15.4579 6.91279 15.5554 6.89553 15.6464 6.85932C15.7375 6.82311 15.8201 6.7687 15.8894 6.69943C15.9587 6.63016 16.0131 6.54747 16.0493 6.45645C16.0855 6.36542 16.1028 6.26796 16.1 6.17003V4.83003Z" fill="#9293A5"/>
<path fill-rule="evenodd" clip-rule="evenodd" d="M14.7 2.74C14.6979 2.55119 14.6247 2.37011 14.4949 2.23293C14.3651 2.09576 14.1884 2.01258 14 2H10C9.80375 2 9.61553 2.07796 9.47675 2.21674C9.33797 2.35552 9.26001 2.54374 9.26001 2.74V4.09H14.66L14.7 2.74Z" fill="#C0C3EE"/>
<path d="M17.19 5H18.27C18.3672 5 18.4634 5.01914 18.5532 5.05633C18.643 5.09352 18.7245 5.14803 18.7933 5.21674C18.862 5.28546 18.9165 5.36703 18.9537 5.45681C18.9909 5.5466 19.01 5.64282 19.01 5.74V21.26C19.01 21.4563 18.932 21.6445 18.7933 21.7833C18.6545 21.922 18.4663 22 18.27 22H17.19V5Z" fill="#C0C3EE"/>
<path fill-rule="evenodd" clip-rule="evenodd" d="M9.29001 18.78H14.71C14.8426 18.78 14.9698 18.7273 15.0636 18.6336C15.1573 18.5398 15.21 18.4126 15.21 18.28C15.21 18.1474 15.1573 18.0202 15.0636 17.9265C14.9698 17.8327 14.8426 17.78 14.71 17.78H9.29001C9.1574 17.78 9.03022 17.8327 8.93645 17.9265C8.84269 18.0202 8.79001 18.1474 8.79001 18.28C8.79001 18.4126 8.84269 18.5398 8.93645 18.6336C9.03022 18.7273 9.1574 18.78 9.29001 18.78Z" fill="#9293A5"/>
<path fill-rule="evenodd" clip-rule="evenodd" d="M12.87 4.22998V6.89998C12.87 7.03259 12.9227 7.15977 13.0164 7.25353C13.1102 7.3473 13.2374 7.39998 13.37 7.39998C13.5026 7.39998 13.6298 7.3473 13.7235 7.25353C13.8173 7.15977 13.87 7.03259 13.87 6.89998V4.22998C13.87 4.09737 13.8173 3.9702 13.7235 3.87643C13.6298 3.78266 13.5026 3.72998 13.37 3.72998C13.2374 3.72998 13.1102 3.78266 13.0164 3.87643C12.9227 3.9702 12.87 4.09737 12.87 4.22998Z" fill="#5F6073"/>
<path fill-rule="evenodd" clip-rule="evenodd" d="M10.13 4.22998V6.89998C10.13 7.03259 10.1827 7.15977 10.2765 7.25353C10.3702 7.3473 10.4974 7.39998 10.63 7.39998C10.7626 7.39998 10.8898 7.3473 10.9836 7.25353C11.0773 7.15977 11.13 7.03259 11.13 6.89998V4.22998C11.13 4.09737 11.0773 3.9702 10.9836 3.87643C10.8898 3.78266 10.7626 3.72998 10.63 3.72998C10.4974 3.72998 10.3702 3.78266 10.2765 3.87643C10.1827 3.9702 10.13 4.09737 10.13 4.22998Z" fill="#5F6073"/>
<path fill-rule="evenodd" clip-rule="evenodd" d="M10.59 20.56H13.41C13.5418 20.5574 13.6675 20.5039 13.7607 20.4107C13.8539 20.3175 13.9074 20.1918 13.91 20.06C13.91 19.9274 13.8573 19.8002 13.7635 19.7064C13.6698 19.6127 13.5426 19.56 13.41 19.56H10.59C10.4574 19.56 10.3302 19.6127 10.2364 19.7064C10.1427 19.8002 10.09 19.9274 10.09 20.06C10.0926 20.1918 10.1461 20.3175 10.2393 20.4107C10.3325 20.5039 10.4582 20.5574 10.59 20.56V20.56Z" fill="#9293A5"/>
</svg>
