<svg width="24" height="24" viewBox="0 0 24 24" fill="none" xmlns="http://www.w3.org/2000/svg">
<path d="M5.18 2C4.93946 2.0026 4.70951 2.09931 4.53941 2.26941C4.36931 2.43951 4.2726 2.66946 4.27 2.91V20.1C4.27 20.6039 4.47018 21.0872 4.8265 21.4435C5.18282 21.7998 5.66609 22 6.17 22H18.38C18.1148 22 17.8604 21.8946 17.6729 21.7071C17.4854 21.5196 17.38 21.2652 17.38 21V2.91C17.3801 2.67208 17.2869 2.4436 17.1206 2.2735C16.9542 2.10341 16.7279 2.00523 16.49 2H5.18Z" fill="#EAE2F9"/>
<path d="M18.82 12.59C19.0614 12.59 19.2928 12.6859 19.4635 12.8566C19.6341 13.0272 19.73 13.2587 19.73 13.5V21.05C19.7314 21.1752 19.7077 21.2993 19.6604 21.4152C19.6132 21.531 19.5432 21.6363 19.4548 21.7248C19.3663 21.8132 19.261 21.8832 19.1451 21.9304C19.0293 21.9777 18.9051 22.0014 18.78 22H18.34C18.2157 22 18.0927 21.9754 17.978 21.9275C17.8633 21.8797 17.7592 21.8095 17.6718 21.7212C17.5844 21.6328 17.5153 21.528 17.4687 21.4128C17.422 21.2976 17.3987 21.1743 17.4 21.05V12.59H18.82Z" fill="#A2A5DE"/>
<path d="M14.61 2V21C14.61 21.2652 14.7154 21.5196 14.9029 21.7071C15.0904 21.8946 15.3448 22 15.61 22H18.4C18.1348 22 17.8804 21.8946 17.6929 21.7071C17.5054 21.5196 17.4 21.2652 17.4 21V2.91C17.4 2.66865 17.3041 2.43719 17.1335 2.26653C16.9628 2.09587 16.7314 2 16.49 2H14.61Z" fill="#C0C3EE"/>
<path fill-rule="evenodd" clip-rule="evenodd" d="M6.70001 19.78H8.61001C8.74262 19.78 8.8698 19.7273 8.96357 19.6336C9.05733 19.5398 9.11001 19.4126 9.11001 19.28C9.10745 19.1482 9.05395 19.0225 8.96073 18.9293C8.86751 18.8361 8.74182 18.7826 8.61001 18.78H6.70001C6.5674 18.78 6.44023 18.8327 6.34646 18.9265C6.25269 19.0202 6.20001 19.1474 6.20001 19.28C6.20001 19.4126 6.25269 19.5398 6.34646 19.6336C6.44023 19.7273 6.5674 19.78 6.70001 19.78Z" fill="#9293A5"/>
<path fill-rule="evenodd" clip-rule="evenodd" d="M10.64 19.78H15C15.1326 19.78 15.2598 19.7273 15.3536 19.6336C15.4473 19.5398 15.5 19.4126 15.5 19.28C15.5 19.1474 15.4473 19.0202 15.3536 18.9265C15.2598 18.8327 15.1326 18.78 15 18.78H10.64C10.5074 18.78 10.3802 18.8327 10.2865 18.9265C10.1927 19.0202 10.14 19.1474 10.14 19.28C10.14 19.4126 10.1927 19.5398 10.2865 19.6336C10.3802 19.7273 10.5074 19.78 10.64 19.78Z" fill="#9293A5"/>
<path fill-rule="evenodd" clip-rule="evenodd" d="M15 16.89H13.06C12.9274 16.89 12.8002 16.9427 12.7064 17.0365C12.6127 17.1302 12.56 17.2574 12.56 17.39C12.56 17.5226 12.6127 17.6498 12.7064 17.7436C12.8002 17.8373 12.9274 17.89 13.06 17.89H15C15.1326 17.89 15.2598 17.8373 15.3536 17.7436C15.4473 17.6498 15.5 17.5226 15.5 17.39C15.5 17.2574 15.4473 17.1302 15.3536 17.0365C15.2598 16.9427 15.1326 16.89 15 16.89Z" fill="#9293A5"/>
<path fill-rule="evenodd" clip-rule="evenodd" d="M11 16.89H6.70001C6.5674 16.89 6.44023 16.9427 6.34646 17.0365C6.25269 17.1302 6.20001 17.2574 6.20001 17.39C6.20001 17.5226 6.25269 17.6498 6.34646 17.7436C6.44023 17.8373 6.5674 17.89 6.70001 17.89H11C11.1326 17.89 11.2598 17.8373 11.3536 17.7436C11.4473 17.6498 11.5 17.5226 11.5 17.39C11.5 17.2574 11.4473 17.1302 11.3536 17.0365C11.2598 16.9427 11.1326 16.89 11 16.89Z" fill="#9293A5"/>
<path fill-rule="evenodd" clip-rule="evenodd" d="M6.70001 16H8.61001C8.74262 16 8.8698 15.9473 8.96357 15.8536C9.05733 15.7598 9.11001 15.6326 9.11001 15.5C9.10745 15.3682 9.05395 15.2425 8.96073 15.1493C8.86751 15.0561 8.74182 15.0026 8.61001 15H6.70001C6.5674 15 6.44023 15.0527 6.34646 15.1464C6.25269 15.2402 6.20001 15.3674 6.20001 15.5C6.20001 15.6326 6.25269 15.7598 6.34646 15.8536C6.44023 15.9473 6.5674 16 6.70001 16Z" fill="#9293A5"/>
<path fill-rule="evenodd" clip-rule="evenodd" d="M10.64 16H15C15.1326 16 15.2598 15.9473 15.3536 15.8536C15.4473 15.7598 15.5 15.6326 15.5 15.5C15.5 15.3674 15.4473 15.2402 15.3536 15.1464C15.2598 15.0527 15.1326 15 15 15H10.64C10.5074 15 10.3802 15.0527 10.2865 15.1464C10.1927 15.2402 10.14 15.3674 10.14 15.5C10.14 15.6326 10.1927 15.7598 10.2865 15.8536C10.3802 15.9473 10.5074 16 10.64 16Z" fill="#9293A5"/>
<path fill-rule="evenodd" clip-rule="evenodd" d="M15 13.1H13.06C12.9274 13.1 12.8002 13.1527 12.7064 13.2464C12.6127 13.3402 12.56 13.4674 12.56 13.6C12.56 13.7326 12.6127 13.8598 12.7064 13.9535C12.8002 14.0473 12.9274 14.1 13.06 14.1H15C15.1326 14.1 15.2598 14.0473 15.3536 13.9535C15.4473 13.8598 15.5 13.7326 15.5 13.6C15.5 13.4674 15.4473 13.3402 15.3536 13.2464C15.2598 13.1527 15.1326 13.1 15 13.1Z" fill="#9293A5"/>
<path fill-rule="evenodd" clip-rule="evenodd" d="M11 13.1H6.70001C6.5674 13.1 6.44023 13.1527 6.34646 13.2464C6.25269 13.3402 6.20001 13.4674 6.20001 13.6C6.20001 13.7326 6.25269 13.8598 6.34646 13.9535C6.44023 14.0473 6.5674 14.1 6.70001 14.1H11C11.1326 14.1 11.2598 14.0473 11.3536 13.9535C11.4473 13.8598 11.5 13.7326 11.5 13.6C11.5 13.4674 11.4473 13.3402 11.3536 13.2464C11.2598 13.1527 11.1326 13.1 11 13.1Z" fill="#9293A5"/>
<path fill-rule="evenodd" clip-rule="evenodd" d="M6.70001 12.21H8.61001C8.74182 12.2075 8.86751 12.154 8.96073 12.0607C9.05395 11.9675 9.10745 11.8418 9.11001 11.71C9.11001 11.5774 9.05733 11.4502 8.96357 11.3565C8.8698 11.2627 8.74262 11.21 8.61001 11.21H6.70001C6.5674 11.21 6.44023 11.2627 6.34646 11.3565C6.25269 11.4502 6.20001 11.5774 6.20001 11.71C6.20001 11.8426 6.25269 11.9698 6.34646 12.0636C6.44023 12.1573 6.5674 12.21 6.70001 12.21Z" fill="#9293A5"/>
<path fill-rule="evenodd" clip-rule="evenodd" d="M10.64 12.21H15C15.1326 12.21 15.2598 12.1573 15.3536 12.0636C15.4473 11.9698 15.5 11.8426 15.5 11.71C15.5 11.5774 15.4473 11.4502 15.3536 11.3565C15.2598 11.2627 15.1326 11.21 15 11.21H10.64C10.5074 11.21 10.3802 11.2627 10.2865 11.3565C10.1927 11.4502 10.14 11.5774 10.14 11.71C10.14 11.8426 10.1927 11.9698 10.2865 12.0636C10.3802 12.1573 10.5074 12.21 10.64 12.21Z" fill="#9293A5"/>
<path fill-rule="evenodd" clip-rule="evenodd" d="M10.33 4.39002V4.21002C10.33 4.07741 10.3827 3.95024 10.4764 3.85647C10.5702 3.7627 10.6974 3.71002 10.83 3.71002C10.9626 3.71002 11.0898 3.7627 11.1835 3.85647C11.2773 3.95024 11.33 4.07741 11.33 4.21002V4.39002C11.5058 4.45623 11.6659 4.55841 11.8 4.69002C11.9203 4.81965 12.0183 4.96834 12.09 5.13002C12.1408 5.25227 12.1421 5.38947 12.0935 5.51263C12.045 5.63579 11.9505 5.73526 11.83 5.79002C11.7063 5.8376 11.5691 5.83615 11.4464 5.78597C11.3238 5.73579 11.2249 5.64066 11.17 5.52002C11.1504 5.47571 11.1234 5.43511 11.09 5.40002C11.0258 5.33711 10.9399 5.3013 10.85 5.30002C10.7545 5.30002 10.6629 5.33795 10.5954 5.40546C10.5279 5.47298 10.49 5.56454 10.49 5.66002C10.49 5.7555 10.5279 5.84707 10.5954 5.91458C10.6629 5.98209 10.7545 6.02002 10.85 6.02002C11.1667 6.02318 11.4726 6.136 11.7156 6.33929C11.9585 6.54258 12.1235 6.82378 12.1824 7.13502C12.2414 7.44626 12.1906 7.76831 12.0389 8.04635C11.8871 8.3244 11.6437 8.54126 11.35 8.66002V8.84002C11.35 8.97263 11.2973 9.09981 11.2035 9.19357C11.1098 9.28734 10.9826 9.34002 10.85 9.34002C10.7174 9.34002 10.5902 9.28734 10.4964 9.19357C10.4027 9.09981 10.35 8.97263 10.35 8.84002V8.66002C10.178 8.58748 10.0218 8.48219 9.88999 8.35002C9.7613 8.23111 9.66201 8.0839 9.59999 7.92002C9.5738 7.85903 9.56002 7.79344 9.55945 7.72706C9.55888 7.66069 9.57152 7.59486 9.59666 7.53343C9.62179 7.472 9.6589 7.41618 9.70583 7.36924C9.75276 7.3223 9.80857 7.28517 9.86999 7.26002C9.99228 7.21289 10.128 7.21465 10.249 7.26492C10.3701 7.31519 10.4671 7.41012 10.52 7.53002C10.5383 7.57501 10.5655 7.61583 10.6 7.65002C10.6673 7.71444 10.7569 7.75028 10.85 7.75002C10.8981 7.75136 10.946 7.74304 10.9908 7.72554C11.0357 7.70805 11.0765 7.68175 11.111 7.64818C11.1455 7.61462 11.173 7.57448 11.1917 7.53014C11.2104 7.4858 11.22 7.43815 11.22 7.39002C11.2229 7.33805 11.2148 7.28605 11.1962 7.23742C11.1776 7.18879 11.149 7.14463 11.1122 7.10782C11.0754 7.07101 11.0312 7.04238 10.9826 7.02381C10.934 7.00523 10.882 6.99713 10.83 7.00002C10.511 7.00323 10.2011 6.89422 9.95438 6.69206C9.70766 6.4899 9.53984 6.20745 9.48026 5.8941C9.42069 5.58074 9.47315 5.25641 9.62848 4.97782C9.78381 4.69922 10.0321 4.48409 10.33 4.37002V4.39002Z" fill="#F1734D"/>
</svg>
