<svg width="24" height="24" viewBox="0 0 24 24" fill="none" xmlns="http://www.w3.org/2000/svg">
<path d="M14.21 7.15997V19H21.44C21.5293 19 21.6177 18.9824 21.7002 18.9482C21.7827 18.914 21.8577 18.8639 21.9208 18.8008C21.984 18.7377 22.0341 18.6627 22.0682 18.5802C22.1024 18.4977 22.12 18.4093 22.12 18.32V7.84997C22.1209 7.76059 22.1036 7.67196 22.0693 7.58945C22.0349 7.50694 21.9841 7.43227 21.92 7.36997C21.8578 7.30497 21.7834 7.25294 21.701 7.21689C21.6186 7.18084 21.5299 7.1615 21.44 7.15997H14.21Z" fill="#FFEABB"/>
<path d="M3.87 3.47998C3.40587 3.47998 2.96075 3.66436 2.63256 3.99255C2.30437 4.32074 2.12 4.76586 2.12 5.22998V19.74C2.12015 19.808 2.14009 19.8744 2.17738 19.9312C2.21467 19.9881 2.2677 20.0328 2.33 20.06C2.39076 20.0873 2.45823 20.0962 2.52401 20.0856C2.58979 20.0749 2.65099 20.0451 2.7 20L3.3 19.47C3.39187 19.3871 3.51123 19.3412 3.635 19.3412C3.75876 19.3412 3.87812 19.3871 3.97 19.47L4.73 20.15C4.84486 20.2505 4.99233 20.306 5.145 20.306C5.29766 20.306 5.44513 20.2505 5.56 20.15L6.32 19.47C6.41187 19.3871 6.53123 19.3412 6.655 19.3412C6.77876 19.3412 6.89812 19.3871 6.99 19.47L7.76 20.15C7.87224 20.2519 8.0184 20.3083 8.17 20.3083C8.32159 20.3083 8.46775 20.2519 8.58 20.15L9.34 19.47C9.43187 19.3871 9.55123 19.3412 9.675 19.3412C9.79876 19.3412 9.91812 19.3871 10.01 19.47L10.77 20.15C10.8822 20.2519 11.0284 20.3083 11.18 20.3083C11.3316 20.3083 11.4778 20.2519 11.59 20.15L12.36 19.47C12.4519 19.3871 12.5712 19.3412 12.695 19.3412C12.8188 19.3412 12.9381 19.3871 13.03 19.47L13.63 20C13.679 20.0451 13.7402 20.0749 13.806 20.0856C13.8718 20.0962 13.9392 20.0873 14 20.06C14.0623 20.0328 14.1153 19.9881 14.1526 19.9312C14.1899 19.8744 14.2098 19.808 14.21 19.74V4.54998C14.21 4.2662 14.3227 3.99404 14.5234 3.79338C14.7241 3.59272 14.9962 3.47998 15.28 3.47998H3.87ZM15.28 3.47998L15.09 4.12998H16.27C16.1845 3.93619 16.0444 3.77151 15.8668 3.65608C15.6892 3.54064 15.4818 3.47945 15.27 3.47998" fill="#EAE2F9"/>
<path d="M12.36 3.47998V19.48C12.4519 19.3971 12.5712 19.3512 12.695 19.3512C12.8188 19.3512 12.9381 19.3971 13.03 19.48L13.63 20.01C13.679 20.0551 13.7402 20.0849 13.806 20.0956C13.8718 20.1062 13.9392 20.0973 14 20.07C14.0623 20.0428 14.1153 19.9981 14.1526 19.9412C14.1899 19.8844 14.2098 19.818 14.21 19.75V4.54998C14.21 4.2662 14.3227 3.99404 14.5234 3.79338C14.7241 3.59272 14.9962 3.47998 15.28 3.47998H12.36ZM15.28 3.47998L15.09 4.12998H16.27C16.1845 3.93619 16.0444 3.77151 15.8668 3.65608C15.6892 3.54064 15.4818 3.47945 15.27 3.47998" fill="#C0C3EE"/>
<path d="M16.35 7.15998H14.21V4.54998C14.21 4.2662 14.3227 3.99404 14.5234 3.79338C14.7241 3.59271 14.9962 3.47998 15.28 3.47998C15.5638 3.47998 15.8359 3.59271 16.0366 3.79338C16.2373 3.99404 16.35 4.2662 16.35 4.54998V7.15998Z" fill="#A2A5DE"/>
<path d="M20.28 7.15997V19H21.44C21.5294 19.0009 21.618 18.9836 21.7005 18.9492C21.783 18.9149 21.8577 18.8641 21.92 18.8C21.9836 18.7373 22.0341 18.6626 22.0685 18.5802C22.1028 18.4977 22.1203 18.4093 22.12 18.32V7.84997C22.1209 7.76059 22.1036 7.67196 22.0693 7.58945C22.0349 7.50694 21.9841 7.43227 21.92 7.36997C21.8582 7.30452 21.7838 7.25219 21.7014 7.21611C21.6189 7.18003 21.53 7.16094 21.44 7.15997H20.28Z" fill="#F7BF75"/>
<path d="M22.13 9.15997H14.21V11.09H22.13V9.15997Z" fill="#9293A5"/>
<path d="M22.12 9.15997H20.28V11.09H22.12V9.15997Z" fill="#6F7188"/>
<path fill-rule="evenodd" clip-rule="evenodd" d="M19 14V13.89C19 13.7574 19.0527 13.6302 19.1464 13.5365C19.2402 13.4427 19.3674 13.39 19.5 13.39C19.6326 13.39 19.7598 13.4427 19.8535 13.5365C19.9473 13.6302 20 13.7574 20 13.89V14C20.142 14.0618 20.271 14.15 20.38 14.26C20.4904 14.3763 20.5785 14.5119 20.64 14.66C20.6904 14.7808 20.6913 14.9166 20.6427 15.0381C20.5941 15.1596 20.4998 15.2573 20.38 15.31C20.2577 15.3608 20.1205 15.3621 19.9974 15.3136C19.8742 15.265 19.7748 15.1705 19.72 15.05C19.7093 15.02 19.6922 14.9928 19.67 14.97C19.6488 14.9462 19.6225 14.9275 19.5931 14.9154C19.5636 14.9033 19.5318 14.898 19.5 14.9C19.4637 14.8926 19.4262 14.8934 19.3902 14.9023C19.3543 14.9112 19.3207 14.928 19.292 14.9514C19.2633 14.9749 19.2402 15.0044 19.2244 15.0379C19.2085 15.0714 19.2002 15.108 19.2002 15.145C19.2002 15.1821 19.2085 15.2187 19.2244 15.2521C19.2402 15.2856 19.2633 15.3151 19.292 15.3386C19.3207 15.362 19.3543 15.3788 19.3902 15.3877C19.4262 15.3966 19.4637 15.3974 19.5 15.39C19.7867 15.3872 20.0655 15.4838 20.289 15.6634C20.5125 15.8429 20.6668 16.0944 20.7258 16.375C20.7847 16.6556 20.7446 16.9479 20.6123 17.2023C20.48 17.4566 20.2636 17.6572 20 17.77V17.89C19.9974 18.0218 19.9439 18.1475 19.8507 18.2407C19.7575 18.334 19.6318 18.3875 19.5 18.39C19.3674 18.39 19.2402 18.3373 19.1464 18.2436C19.0527 18.1498 19 18.0226 19 17.89V17.77C18.8542 17.7097 18.7218 17.6213 18.6103 17.5097C18.4988 17.3982 18.4103 17.2658 18.35 17.12C18.2992 16.9978 18.2979 16.8606 18.3465 16.7374C18.395 16.6142 18.4895 16.5148 18.61 16.46C18.671 16.4338 18.7366 16.42 18.803 16.4195C18.8693 16.4189 18.9352 16.4315 18.9966 16.4567C19.058 16.4818 19.1138 16.5189 19.1608 16.5659C19.2077 16.6128 19.2448 16.6686 19.27 16.73C19.2807 16.76 19.2977 16.7873 19.32 16.81C19.3702 16.8532 19.4338 16.8779 19.5 16.88C19.5565 16.8685 19.6073 16.8379 19.6438 16.7932C19.6803 16.7486 19.7002 16.6927 19.7002 16.635C19.7002 16.5773 19.6803 16.5215 19.6438 16.4768C19.6073 16.4322 19.5565 16.4015 19.5 16.39C19.2151 16.3871 18.9397 16.287 18.7195 16.1063C18.4993 15.9255 18.3474 15.6749 18.2891 15.396C18.2307 15.1172 18.2694 14.8267 18.3987 14.5728C18.528 14.319 18.7401 14.1169 19 14V14Z" fill="#F1734D"/>
<path fill-rule="evenodd" clip-rule="evenodd" d="M7.67 6.27995V6.13995C7.67 6.00735 7.72268 5.88017 7.81645 5.7864C7.91022 5.69263 8.03739 5.63995 8.17 5.63995C8.30181 5.64251 8.4275 5.69601 8.52072 5.78923C8.61394 5.88245 8.66744 6.00815 8.67 6.13995V6.28995C8.8216 6.35492 8.96043 6.44634 9.08 6.55995C9.20125 6.68687 9.29638 6.83636 9.36 6.99995C9.4058 7.12082 9.40301 7.25473 9.35223 7.37359C9.30144 7.49245 9.20659 7.58702 9.08759 7.63747C8.96858 7.68792 8.83467 7.69032 8.71393 7.64417C8.59319 7.59803 8.49502 7.50691 8.44 7.38995C8.42253 7.35288 8.39886 7.31906 8.37 7.28995C8.3436 7.26408 8.31233 7.24368 8.278 7.22995C8.24367 7.21622 8.20697 7.20942 8.17 7.20995C8.13108 7.20861 8.0923 7.21512 8.05595 7.22909C8.0196 7.24306 7.98644 7.26421 7.95844 7.29127C7.93045 7.31834 7.90819 7.35076 7.89299 7.38662C7.8778 7.42247 7.86998 7.46101 7.87 7.49995C7.87 7.57952 7.90161 7.65582 7.95787 7.71209C8.01413 7.76835 8.09044 7.79995 8.17 7.79995C8.50869 7.79991 8.83381 7.93307 9.07517 8.17069C9.31652 8.4083 9.45475 8.7313 9.46 9.06995C9.45954 9.32519 9.38452 9.57473 9.24418 9.78791C9.10383 10.0011 8.90427 10.1686 8.67 10.27V10.41C8.67 10.5426 8.61732 10.6697 8.52355 10.7635C8.42979 10.8573 8.30261 10.91 8.17 10.91C8.03739 10.91 7.91022 10.8573 7.81645 10.7635C7.72268 10.6697 7.67 10.5426 7.67 10.41V10.27C7.51432 10.2071 7.37185 10.1155 7.25 9.99995V9.99995C7.14056 9.87348 7.05577 9.72763 7 9.56995C6.96378 9.45104 6.97316 9.3229 7.0263 9.21053C7.07944 9.09815 7.17254 9.0096 7.28743 8.96215C7.40232 8.91469 7.53077 8.91174 7.64772 8.95386C7.76467 8.99597 7.86174 9.08014 7.92 9.18995C7.94127 9.22435 7.96833 9.2548 8 9.27995C8.06012 9.33545 8.13823 9.3674 8.22 9.36995C8.28894 9.35721 8.35123 9.32072 8.39607 9.26683C8.44091 9.21295 8.46546 9.14506 8.46546 9.07495C8.46546 9.00485 8.44091 8.93696 8.39607 8.88307C8.35123 8.82918 8.28894 8.7927 8.22 8.77995C7.91947 8.77995 7.62823 8.67583 7.39581 8.4853C7.1634 8.29477 7.00418 8.0296 6.94525 7.7349C6.88631 7.44021 6.93129 7.1342 7.07254 6.86894C7.21379 6.60367 7.44259 6.39554 7.72 6.27995H7.67Z" fill="#F1734D"/>
<path fill-rule="evenodd" clip-rule="evenodd" d="M4.34999 12.9H6.10999C6.2418 12.8974 6.36749 12.8439 6.46071 12.7507C6.55393 12.6575 6.60743 12.5318 6.60999 12.4C6.60999 12.2674 6.55731 12.1402 6.46354 12.0464C6.36978 11.9526 6.2426 11.9 6.10999 11.9H4.34999C4.21738 11.9 4.09021 11.9526 3.99644 12.0464C3.90267 12.1402 3.84999 12.2674 3.84999 12.4C3.84999 12.5326 3.90267 12.6597 3.99644 12.7535C4.09021 12.8473 4.21738 12.9 4.34999 12.9Z" fill="#6F7188"/>
<path fill-rule="evenodd" clip-rule="evenodd" d="M8 12.9H12C12.1326 12.9 12.2598 12.8473 12.3536 12.7535C12.4473 12.6597 12.5 12.5326 12.5 12.4C12.5 12.2674 12.4473 12.1402 12.3536 12.0464C12.2598 11.9526 12.1326 11.9 12 11.9H8C7.86739 11.9 7.74021 11.9526 7.64645 12.0464C7.55268 12.1402 7.5 12.2674 7.5 12.4C7.50256 12.5318 7.55606 12.6575 7.64928 12.7507C7.7425 12.8439 7.86819 12.8974 8 12.9V12.9Z" fill="#6F7188"/>
<path fill-rule="evenodd" clip-rule="evenodd" d="M12 13.93H10.2C10.0674 13.93 9.94021 13.9827 9.84644 14.0764C9.75268 14.1702 9.7 14.2974 9.7 14.43C9.70256 14.5618 9.75606 14.6875 9.84928 14.7807C9.9425 14.8739 10.0682 14.9274 10.2 14.93H12C12.1326 14.93 12.2598 14.8773 12.3536 14.7835C12.4473 14.6898 12.5 14.5626 12.5 14.43C12.5 14.2974 12.4473 14.1702 12.3536 14.0764C12.2598 13.9827 12.1326 13.93 12 13.93Z" fill="#6F7188"/>
<path fill-rule="evenodd" clip-rule="evenodd" d="M8.34 13.93H4.34C4.20739 13.93 4.08021 13.9827 3.98644 14.0764C3.89267 14.1702 3.84 14.2974 3.84 14.43C3.84 14.5626 3.89267 14.6898 3.98644 14.7835C4.08021 14.8773 4.20739 14.93 4.34 14.93H8.34C8.4718 14.9274 8.5975 14.8739 8.69072 14.7807C8.78394 14.6875 8.83744 14.5618 8.84 14.43C8.84 14.2974 8.78732 14.1702 8.69355 14.0764C8.59978 13.9827 8.4726 13.93 8.34 13.93Z" fill="#6F7188"/>
<path fill-rule="evenodd" clip-rule="evenodd" d="M4.34999 17H6.10999C6.2418 16.9974 6.36749 16.9439 6.46071 16.8507C6.55393 16.7575 6.60743 16.6318 6.60999 16.5C6.60999 16.3674 6.55731 16.2402 6.46354 16.1464C6.36978 16.0527 6.2426 16 6.10999 16H4.34999C4.21738 16 4.09021 16.0527 3.99644 16.1464C3.90267 16.2402 3.84999 16.3674 3.84999 16.5C3.84999 16.6326 3.90267 16.7598 3.99644 16.8536C4.09021 16.9473 4.21738 17 4.34999 17Z" fill="#6F7188"/>
<path fill-rule="evenodd" clip-rule="evenodd" d="M8 17H12C12.1326 17 12.2598 16.9473 12.3536 16.8536C12.4473 16.7598 12.5 16.6326 12.5 16.5C12.5 16.3674 12.4473 16.2402 12.3536 16.1464C12.2598 16.0527 12.1326 16 12 16H8C7.86739 16 7.74021 16.0527 7.64645 16.1464C7.55268 16.2402 7.5 16.3674 7.5 16.5C7.50256 16.6318 7.55606 16.7575 7.64928 16.8507C7.7425 16.9439 7.86819 16.9974 8 17Z" fill="#6F7188"/>
</svg>
