<svg width="24" height="24" viewBox="0 0 24 24" fill="none" xmlns="http://www.w3.org/2000/svg">
<path fill-rule="evenodd" clip-rule="evenodd" d="M11.5 8.76001V11.34C11.5 11.4726 11.5527 11.5998 11.6464 11.6936C11.7402 11.7873 11.8674 11.84 12 11.84C12.1326 11.84 12.2598 11.7873 12.3536 11.6936C12.4473 11.5998 12.5 11.4726 12.5 11.34V8.76001C12.5 8.6274 12.4473 8.50022 12.3536 8.40646C12.2598 8.31269 12.1326 8.26001 12 8.26001C11.8674 8.26001 11.7402 8.31269 11.6464 8.40646C11.5527 8.50022 11.5 8.6274 11.5 8.76001Z" fill="#EAE2F9"/>
<path fill-rule="evenodd" clip-rule="evenodd" d="M4.37 11.84V19.28C4.37 19.4126 4.31732 19.5398 4.22355 19.6336C4.12978 19.7273 4.0026 19.78 3.87 19.78C3.73739 19.78 3.61021 19.7273 3.51644 19.6336C3.42267 19.5398 3.37 19.4126 3.37 19.28V11.34C3.37256 11.2082 3.42606 11.0825 3.51927 10.9893C3.61249 10.8961 3.73819 10.8426 3.87 10.84H20.13C20.2618 10.8426 20.3875 10.8961 20.4807 10.9893C20.5739 11.0825 20.6274 11.2082 20.63 11.34V13.81C20.63 13.9426 20.5773 14.0698 20.4835 14.1636C20.3898 14.2573 20.2626 14.31 20.13 14.31C19.9974 14.31 19.8702 14.2573 19.7764 14.1636C19.6827 14.0698 19.63 13.9426 19.63 13.81V11.81L4.37 11.84Z" fill="#EAE2F9"/>
<path fill-rule="evenodd" clip-rule="evenodd" d="M19.63 15.9V19.28C19.63 19.4126 19.6827 19.5398 19.7764 19.6336C19.8702 19.7273 19.9974 19.78 20.13 19.78C20.2626 19.78 20.3898 19.7273 20.4835 19.6336C20.5773 19.5398 20.63 19.4126 20.63 19.28V15.9C20.63 15.7674 20.5773 15.6402 20.4835 15.5465C20.3898 15.4527 20.2626 15.4 20.13 15.4C19.9974 15.4 19.8702 15.4527 19.7764 15.5465C19.6827 15.6402 19.63 15.7674 19.63 15.9Z" fill="#EAE2F9"/>
<path fill-rule="evenodd" clip-rule="evenodd" d="M12.5 15.21V19.28C12.5 19.4126 12.4473 19.5398 12.3536 19.6336C12.2598 19.7273 12.1326 19.78 12 19.78C11.8674 19.78 11.7402 19.7273 11.6464 19.6336C11.5527 19.5398 11.5 19.4126 11.5 19.28V14.71C11.5 14.5774 11.5527 14.4502 11.6464 14.3565C11.7402 14.2627 11.8674 14.21 12 14.21H18.6C18.7326 14.21 18.8598 14.2627 18.9536 14.3565C19.0473 14.4502 19.1 14.5774 19.1 14.71C19.1 14.8426 19.0473 14.9698 18.9536 15.0636C18.8598 15.1573 18.7326 15.21 18.6 15.21H12.5Z" fill="#EAE2F9"/>
<path d="M13.4 3.4C13.4 3.67689 13.3179 3.94757 13.164 4.1778C13.0102 4.40803 12.7916 4.58747 12.5357 4.69343C12.2799 4.79939 11.9984 4.82712 11.7269 4.7731C11.4553 4.71908 11.2058 4.58574 11.01 4.38995C10.8142 4.19416 10.6809 3.9447 10.6269 3.67313C10.5729 3.40155 10.6006 3.12006 10.7066 2.86424C10.8125 2.60843 10.992 2.38978 11.2222 2.23594C11.4524 2.08211 11.7231 2 12 2C12.3713 2 12.7274 2.1475 12.9899 2.41005C13.2525 2.6726 13.4 3.0287 13.4 3.4" fill="#F7BF75"/>
<path d="M11.94 6.25C11.3087 6.26389 10.7012 6.49384 10.219 6.90148C9.7367 7.30913 9.40881 7.86981 9.28999 8.49C9.27275 8.60364 9.29026 8.71983 9.34022 8.82334C9.39019 8.92684 9.47029 9.01282 9.56999 9.07C10.3132 9.4833 11.1496 9.70021 12 9.70021C12.8504 9.70021 13.6868 9.4833 14.43 9.07C14.5366 9.00282 14.6198 8.90426 14.6682 8.78787C14.7165 8.67148 14.7277 8.54296 14.7 8.42C14.5619 7.80613 14.2197 7.25725 13.7293 6.86308C13.2388 6.46891 12.6292 6.25277 12 6.25H11.94Z" fill="#F7BF75"/>
<path d="M5.73 20.15C5.73 20.5179 5.62091 20.8775 5.41653 21.1834C5.21215 21.4892 4.92166 21.7276 4.58179 21.8684C4.24192 22.0092 3.86793 22.046 3.50713 21.9743C3.14632 21.9025 2.8149 21.7253 2.55478 21.4652C2.29465 21.2051 2.1175 20.8737 2.04573 20.5129C1.97397 20.1521 2.0108 19.7781 2.15158 19.4382C2.29236 19.0983 2.53076 18.8078 2.83663 18.6035C3.14251 18.3991 3.50212 18.29 3.87 18.29C4.11462 18.2887 4.35709 18.3359 4.58335 18.4289C4.80962 18.5219 5.01519 18.6588 5.18817 18.8318C5.36115 19.0048 5.49811 19.2104 5.59111 19.4366C5.68412 19.6629 5.73132 19.9054 5.73 20.15" fill="#96CCEE"/>
<path d="M22 14.71C22.002 15.0787 21.8943 15.4397 21.6907 15.7471C21.4871 16.0545 21.1967 16.2945 20.8564 16.4365C20.5162 16.5785 20.1413 16.6162 19.7796 16.5447C19.4179 16.4733 19.0855 16.2959 18.8248 16.0352C18.5641 15.7745 18.3867 15.4421 18.3153 15.0804C18.2438 14.7187 18.2815 14.3439 18.4235 14.0036C18.5655 13.6633 18.8055 13.3729 19.1129 13.1693C19.4203 12.9657 19.7813 12.858 20.15 12.86C20.6407 12.86 21.1112 13.0549 21.4582 13.4019C21.8051 13.7488 22 14.2194 22 14.71" fill="#F94060"/>
<path d="M22 20.15C22 20.5183 21.8907 20.8783 21.6858 21.1844C21.481 21.4905 21.1899 21.7289 20.8495 21.8694C20.509 22.0098 20.1345 22.0461 19.7734 21.9735C19.4124 21.9009 19.081 21.7228 18.8212 21.4616C18.5615 21.2005 18.3852 20.8682 18.3145 20.5067C18.2439 20.1452 18.2822 19.7709 18.4245 19.4313C18.5668 19.0916 18.8067 18.8018 19.1139 18.5986C19.4211 18.3954 19.7817 18.288 20.15 18.29C20.3938 18.29 20.6352 18.3382 20.8603 18.4318C21.0854 18.5254 21.2898 18.6625 21.4617 18.8354C21.6336 19.0082 21.7697 19.2134 21.8621 19.439C21.9544 19.6646 22.0013 19.9062 22 20.15" fill="#96CCEE"/>
<path d="M13.85 20.15C13.848 20.5154 13.7378 20.8721 13.5334 21.175C13.3289 21.478 13.0393 21.7135 12.7011 21.852C12.3628 21.9905 11.9912 22.0257 11.633 21.9532C11.2748 21.8807 10.9461 21.7037 10.6884 21.4446C10.4306 21.1855 10.2554 20.8558 10.1848 20.4972C10.1143 20.1386 10.1515 19.7672 10.2918 19.4297C10.4321 19.0923 10.6692 18.8039 10.9732 18.6011C11.2773 18.3982 11.6345 18.29 12 18.29C12.2438 18.29 12.4852 18.3382 12.7103 18.4318C12.9354 18.5253 13.1398 18.6625 13.3117 18.8354C13.4836 19.0082 13.6197 19.2133 13.7121 19.4389C13.8044 19.6645 13.8513 19.9062 13.85 20.15Z" fill="#96CCEE"/>
</svg>
