<svg width="24" height="24" viewBox="0 0 24 24" fill="none" xmlns="http://www.w3.org/2000/svg">
<path d="M13.12 6.92997H10.52C10.4403 6.92986 10.3627 6.90469 10.2981 6.85803C10.2335 6.81137 10.1852 6.74559 10.16 6.66997C9.65 5.08997 7.77 4.27997 7 3.99997C6.96487 3.98693 6.92709 3.98267 6.88994 3.98756C6.8528 3.99245 6.8174 4.00634 6.78685 4.02803C6.75629 4.04971 6.7315 4.07854 6.71462 4.11199C6.69774 4.14544 6.68929 4.18251 6.69 4.21997V6.71997C6.6884 6.81352 6.65769 6.90424 6.60213 6.97952C6.54656 7.05479 6.46892 7.11088 6.38 7.13997C5.63215 7.37421 4.96318 7.80975 4.44638 8.39887C3.92957 8.988 3.58486 9.70798 3.45 10.48C3.4355 10.578 3.38599 10.6675 3.31061 10.7318C3.23523 10.7962 3.1391 10.831 3.04 10.83H2.48C2.35279 10.8307 2.23086 10.8809 2.14 10.97C2.09547 11.0147 2.06018 11.0677 2.03615 11.126C2.01213 11.1844 1.99985 11.2469 2 11.31V13.31C2.00125 13.44 2.0512 13.5649 2.14 13.66C2.23086 13.749 2.35279 13.7992 2.48 13.8H3.1C3.19696 13.7996 3.29121 13.8319 3.36745 13.8919C3.4437 13.9518 3.49745 14.0357 3.52 14.13C3.70246 14.9665 4.1316 15.729 4.75197 16.3191C5.37233 16.9092 6.15541 17.2996 7 17.44C7.06279 17.4494 7.12026 17.4806 7.16232 17.5281C7.20438 17.5757 7.22835 17.6365 7.23 17.7V19C7.29059 19.2077 7.41691 19.3902 7.59 19.52C7.7631 19.6498 7.97363 19.72 8.19 19.72C8.40637 19.72 8.61691 19.6498 8.79 19.52C8.9631 19.3902 9.08942 19.2077 9.15 19V17.78C9.14995 17.7101 9.17702 17.6429 9.22551 17.5925C9.27401 17.5421 9.34014 17.5126 9.41 17.51H15.93C15.9724 17.509 16.0146 17.5164 16.054 17.5319C16.0935 17.5473 16.1295 17.5705 16.16 17.6C16.2214 17.6611 16.2572 17.7434 16.26 17.83V19C16.3206 19.2077 16.4469 19.3902 16.62 19.52C16.7931 19.6498 17.0036 19.72 17.22 19.72C17.4364 19.72 17.6469 19.6498 17.82 19.52C17.9931 19.3902 18.1194 19.2077 18.18 19V17.35C18.1799 17.2457 18.2065 17.1432 18.2572 17.0522C18.308 16.9612 18.3813 16.8847 18.47 16.83C19.0796 16.4518 19.583 15.9248 19.9328 15.2985C20.2827 14.6723 20.4675 13.9673 20.47 13.25L13.12 6.92997Z" fill="#F94060"/>
<path d="M17.12 4.83998C18.086 4.838 19.0309 5.12278 19.8349 5.65824C20.639 6.1937 21.266 6.95575 21.6366 7.84786C22.0072 8.73997 22.1047 9.722 21.9167 10.6696C21.7287 11.6171 21.2638 12.4876 20.5807 13.1706C19.8976 13.8537 19.0271 14.3187 18.0796 14.5067C17.132 14.6947 16.15 14.5972 15.2579 14.2266C14.3658 13.856 13.6037 13.229 13.0683 12.4249C12.5328 11.6209 12.248 10.676 12.25 9.70998C12.25 8.41837 12.7631 7.17967 13.6764 6.26637C14.5897 5.35306 15.8284 4.83998 17.12 4.83998" fill="#FFEABB"/>
<path d="M9.37001 17.5099C9.30457 17.5194 9.24457 17.5517 9.20065 17.6011C9.15672 17.6505 9.1317 17.7139 9.13001 17.7799V18.9999C9.13001 19.2652 9.02466 19.5195 8.83712 19.7071C8.64958 19.8946 8.39523 19.9999 8.13001 19.9999C7.97009 20.0006 7.81234 19.9629 7.67001 19.8899V19.8899C7.82375 19.7989 7.95029 19.6683 8.03646 19.5118C8.12263 19.3553 8.1653 19.1785 8.16001 18.9999V17.7799C8.16001 17.7083 8.18846 17.6397 8.23909 17.589C8.28973 17.5384 8.35841 17.5099 8.43001 17.5099H9.37001Z" fill="#D62657"/>
<path fill-rule="evenodd" clip-rule="evenodd" d="M20.47 13.2599C20.1718 13.5537 19.8355 13.806 19.47 14.0099C19.3632 14.5849 19.1383 15.1315 18.8095 15.6151C18.4808 16.0988 18.0553 16.509 17.56 16.8199C17.4637 16.8779 17.3844 16.9601 17.33 17.0584C17.2755 17.1567 17.248 17.2676 17.25 17.3799C17.25 17.9699 17.25 19.0399 17.25 19.0399C17.2426 19.204 17.195 19.3637 17.1113 19.505C17.0276 19.6462 16.9104 19.7647 16.77 19.8499C16.9163 19.9444 17.0859 19.9963 17.26 19.9999C17.5252 19.9999 17.7796 19.8946 17.9671 19.7071C18.1546 19.5195 18.26 19.2652 18.26 18.9999V17.3499C18.2599 17.2457 18.2865 17.1432 18.3372 17.0522C18.388 16.9611 18.4613 16.8846 18.55 16.8299C19.1439 16.4439 19.6312 15.9145 19.9667 15.2906C20.3022 14.6667 20.4753 13.9683 20.47 13.2599V13.2599Z" fill="#D62657"/>
<path d="M6.71999 4.20997C6.71433 4.17008 6.71972 4.1294 6.73559 4.09237C6.75146 4.05534 6.7772 4.02338 6.80999 3.99997C6.87106 3.976 6.93893 3.976 6.99999 3.99997C7.74999 4.26997 9.62999 5.07997 10.14 6.65997C10.1627 6.72951 10.2049 6.79103 10.2617 6.83715C10.3184 6.88326 10.3873 6.91202 10.46 6.91997H9.58999C9.49997 6.91944 9.4125 6.88999 9.34049 6.83598C9.26847 6.78197 9.21571 6.70624 9.18999 6.61997C8.70228 5.54486 7.8116 4.70446 6.70999 4.27997V4.27997C6.70999 4.27997 6.73999 4.22997 6.71999 4.20997Z" fill="#D62657"/>
<path d="M17.08 4.83997C16.5197 4.83969 15.964 4.94134 15.44 5.13997H15.64C16.8547 5.13997 18.0196 5.6225 18.8786 6.48142C19.7375 7.34033 20.22 8.50527 20.22 9.71997C20.22 10.9347 19.7375 12.0996 18.8786 12.9585C18.0196 13.8174 16.8547 14.3 15.64 14.3H15.44C16.1104 14.551 16.8277 14.6515 17.5413 14.5943C18.2548 14.5371 18.947 14.3236 19.5688 13.969C20.1906 13.6144 20.7268 13.1273 21.1393 12.5423C21.5519 11.9574 21.8307 11.2888 21.956 10.584C22.0813 9.87926 22.05 9.15556 21.8643 8.46424C21.6787 7.77292 21.3432 7.1309 20.8817 6.58371C20.4203 6.03652 19.844 5.59755 19.1939 5.29793C18.5439 4.99831 17.8358 4.84537 17.12 4.84997V4.84997" fill="#F7BF75"/>
<path fill-rule="evenodd" clip-rule="evenodd" d="M16.63 7.45995V7.25995C16.63 7.12734 16.6827 7.00016 16.7765 6.90639C16.8702 6.81263 16.9974 6.75995 17.13 6.75995C17.2626 6.75995 17.3898 6.81263 17.4836 6.90639C17.5773 7.00016 17.63 7.12734 17.63 7.25995V7.45995C17.8179 7.52908 17.9885 7.63827 18.13 7.77995C18.2527 7.91148 18.3509 8.06387 18.42 8.22995C18.4704 8.35076 18.4714 8.48651 18.4227 8.60804C18.3741 8.72958 18.2798 8.8272 18.16 8.87995C18.0378 8.93074 17.9006 8.93201 17.7774 8.88349C17.6542 8.83497 17.5548 8.74047 17.5 8.61995C17.4817 8.57199 17.4546 8.52789 17.42 8.48995C17.3409 8.41644 17.2379 8.37385 17.13 8.36995C17.0239 8.36995 16.9222 8.41209 16.8472 8.48711C16.7721 8.56212 16.73 8.66386 16.73 8.76995C16.73 8.87604 16.7721 8.97778 16.8472 9.05279C16.9222 9.12781 17.0239 9.16995 17.13 9.16995C17.4583 9.1685 17.7767 9.28247 18.0295 9.49195C18.2822 9.70142 18.4534 9.99307 18.5129 10.3159C18.5725 10.6388 18.5167 10.9723 18.3553 11.2582C18.1939 11.5441 17.9372 11.7641 17.63 11.8799V12.0899C17.63 12.2226 17.5773 12.3497 17.4836 12.4435C17.3898 12.5373 17.2626 12.5899 17.13 12.5899C16.9974 12.5899 16.8702 12.5373 16.7765 12.4435C16.6827 12.3497 16.63 12.2226 16.63 12.0899V11.8799C16.4507 11.8102 16.2873 11.7047 16.15 11.5699C16.0179 11.4419 15.9125 11.289 15.84 11.1199C15.7924 10.9962 15.7939 10.859 15.8441 10.7364C15.8942 10.6137 15.9894 10.5148 16.11 10.4599C16.2323 10.4128 16.368 10.4146 16.489 10.4648C16.6101 10.5151 16.7071 10.61 16.76 10.7299C16.7806 10.7791 16.8112 10.8234 16.85 10.8599C16.9224 10.9301 17.0192 10.9696 17.12 10.9699C17.1721 10.97 17.2236 10.9596 17.2716 10.9393C17.3196 10.9191 17.363 10.8895 17.3994 10.8522C17.4357 10.8149 17.4642 10.7707 17.4832 10.7223C17.5022 10.6738 17.5113 10.622 17.51 10.5699C17.51 10.4639 17.4679 10.3621 17.3928 10.2871C17.3178 10.2121 17.2161 10.1699 17.11 10.1699C16.7817 10.1714 16.4633 10.0574 16.2106 9.84795C15.9578 9.63848 15.7866 9.34683 15.7271 9.02398C15.6675 8.70113 15.7233 8.36761 15.8847 8.08172C16.0461 7.79583 16.3028 7.57575 16.61 7.45995H16.63Z" fill="#F1734D"/>
<path fill-rule="evenodd" clip-rule="evenodd" d="M5.86002 9.37994V9.99994C5.86002 10.1326 5.91269 10.2597 6.00646 10.3535C6.10023 10.4473 6.22741 10.4999 6.36002 10.4999C6.49262 10.4999 6.6198 10.4473 6.71357 10.3535C6.80734 10.2597 6.86002 10.1326 6.86002 9.99994V9.37994C6.86002 9.24734 6.80734 9.12016 6.71357 9.02639C6.6198 8.93262 6.49262 8.87994 6.36002 8.87994C6.22741 8.87994 6.10023 8.93262 6.00646 9.02639C5.91269 9.12016 5.86002 9.24734 5.86002 9.37994Z" fill="#D62657"/>
</svg>
