<svg width="24" height="24" viewBox="0 0 24 24" fill="none" xmlns="http://www.w3.org/2000/svg">
<path d="M9.27 4.32999C8.10661 4.51469 6.99379 4.93725 6.00102 5.57129C5.00825 6.20532 4.15685 7.03721 3.49997 8.01502C2.8431 8.99282 2.39485 10.0955 2.18323 11.2543C1.9716 12.4131 2.00114 13.6031 2.27 14.75C2.72864 16.7794 3.931 18.5633 5.64 19.75C6.78062 20.5452 8.09725 21.0517 9.47678 21.2259C10.8563 21.4001 12.2575 21.2368 13.56 20.75C13.7172 20.6779 13.8579 20.5742 13.9732 20.4453C14.0886 20.3165 14.1762 20.1653 14.2306 20.0011C14.285 19.837 14.3051 19.6634 14.2895 19.4911C14.2739 19.3189 14.223 19.1517 14.14 19L10.56 12.8V5.46999C10.5614 5.30678 10.5278 5.14517 10.4613 4.99608C10.3949 4.847 10.2972 4.71391 10.1749 4.60583C10.0526 4.49775 9.90856 4.41719 9.75244 4.3696C9.59631 4.32201 9.43179 4.3085 9.27 4.32999Z" fill="#96CCEE"/>
<path d="M14.62 13.53C14.5048 13.5322 14.3921 13.5636 14.2924 13.6214C14.1927 13.6791 14.1093 13.7612 14.05 13.86C13.9912 13.9618 13.9602 14.0774 13.9602 14.195C13.9602 14.3126 13.9912 14.4281 14.05 14.53L17.13 19.86C17.2095 20.002 17.3187 20.1252 17.4502 20.2211C17.5817 20.317 17.7324 20.3834 17.8919 20.4157C18.0515 20.448 18.2161 20.4454 18.3745 20.4082C18.533 20.3709 18.6815 20.2999 18.81 20.2C19.7066 19.4884 20.4511 18.6039 20.9991 17.5989C21.5471 16.594 21.8875 15.4891 22 14.35C22.0086 14.2462 21.9953 14.1419 21.9608 14.0436C21.9263 13.9454 21.8715 13.8556 21.8 13.78C21.7294 13.7047 21.6442 13.6446 21.5497 13.6034C21.4551 13.5621 21.3532 13.5405 21.25 13.54L14.62 13.53Z" fill="#FFEABB"/>
<path d="M13.06 2.66998C13.0043 2.66998 12.9509 2.69211 12.9115 2.73149C12.8721 2.77087 12.85 2.82429 12.85 2.87998V10.55C12.8486 10.637 12.8648 10.7235 12.8975 10.8041C12.9302 10.8848 12.9787 10.9581 13.0403 11.0197C13.1019 11.0812 13.1751 11.1298 13.2558 11.1625C13.3365 11.1952 13.4229 11.2113 13.51 11.21H20.4C20.5321 11.2116 20.663 11.1847 20.7838 11.1313C20.9046 11.0778 21.0124 10.9989 21.1 10.9C21.1897 10.8024 21.2575 10.6868 21.2989 10.5609C21.3403 10.435 21.3543 10.3017 21.34 10.17C21.0868 8.13546 20.1117 6.2594 18.5922 4.88302C17.0726 3.50663 15.1096 2.72135 13.06 2.66998V2.66998Z" fill="#F94060"/>
<path d="M19.81 13.53C19.8089 14.7049 19.566 15.867 19.0963 16.944C18.6266 18.021 17.9403 18.9898 17.08 19.79L17.26 20.08C17.3241 20.1935 17.4114 20.2924 17.5161 20.37C17.6209 20.4477 17.7408 20.5024 17.8682 20.5307C17.9955 20.559 18.1273 20.5602 18.2551 20.5342C18.3829 20.5083 18.5038 20.4557 18.61 20.38C19.5537 19.6649 20.3399 18.7631 20.9197 17.7308C21.4995 16.6986 21.8604 15.5579 21.98 14.38C21.9886 14.2762 21.9753 14.1719 21.9408 14.0736C21.9063 13.9754 21.8515 13.8856 21.78 13.81C21.7094 13.7347 21.6242 13.6746 21.5297 13.6334C21.4351 13.5921 21.3332 13.5705 21.23 13.57L19.81 13.53Z" fill="#F7BF75"/>
<path d="M10.56 5.13999C10.5638 5.01399 10.5392 4.88875 10.4881 4.77355C10.4369 4.65835 10.3604 4.55615 10.2644 4.47451C10.1684 4.39287 10.0552 4.33389 9.93323 4.30195C9.81129 4.27001 9.68372 4.26592 9.55999 4.28999C9.13497 4.34093 8.71397 4.42112 8.29999 4.52999V10.23C8.31995 11.9087 8.77844 13.5531 9.62999 15L12.07 19.22C12.147 19.3415 12.1969 19.4781 12.2163 19.6207C12.2357 19.7632 12.2241 19.9082 12.1824 20.0458C12.1406 20.1835 12.0696 20.3105 11.9743 20.4182C11.879 20.5259 11.7615 20.6118 11.63 20.67C10.9329 20.9631 10.1997 21.1615 9.44999 21.26C9.81846 21.3032 10.189 21.3266 10.56 21.33C11.7442 21.3311 12.9156 21.0859 14 20.61C14.1089 20.5606 14.2062 20.4887 14.2855 20.3991C14.3648 20.3095 14.4242 20.2042 14.46 20.09C14.4986 19.9784 14.5123 19.8597 14.5002 19.7422C14.4881 19.6248 14.4505 19.5114 14.39 19.41C13.65 18.11 12.16 15.52 11.27 13.99C10.8111 13.2004 10.5696 12.3033 10.57 11.39L10.56 5.13999Z" fill="#6F73D5"/>
<path d="M13.06 2.66998C13.0043 2.66998 12.9509 2.69211 12.9115 2.73149C12.8721 2.77087 12.85 2.82429 12.85 2.87998C12.8471 2.90657 12.8471 2.93339 12.85 2.95998C14.668 3.44467 16.275 4.51615 17.4215 6.00799C18.5679 7.49983 19.1896 9.32851 19.19 11.21H20.4C20.5321 11.2116 20.663 11.1847 20.7838 11.1313C20.9046 11.0778 21.0124 10.9989 21.1 10.9C21.1897 10.8024 21.2575 10.6868 21.2989 10.5609C21.3403 10.435 21.3543 10.3017 21.34 10.17C21.0868 8.13546 20.1117 6.2594 18.5922 4.88302C17.0727 3.50663 15.1096 2.72135 13.06 2.66998V2.66998Z" fill="#D62657"/>
</svg>
