<svg width="24" height="24" viewBox="0 0 24 24" fill="none" xmlns="http://www.w3.org/2000/svg">
<path d="M20.89 18.88V5.56C20.8773 5.40529 20.8061 5.26124 20.6909 5.1572C20.5757 5.05315 20.4252 4.99693 20.27 5L4.00001 5.15C3.83823 5.15 3.68308 5.21426 3.56868 5.32866C3.45428 5.44306 3.39001 5.59822 3.39001 5.76V18.88H20.89Z" fill="#EAE2F9"/>
<path fill-rule="evenodd" clip-rule="evenodd" d="M9.86001 13.66H14.17C14.3026 13.66 14.4298 13.7127 14.5236 13.8065C14.6173 13.9002 14.67 14.0274 14.67 14.16C14.67 14.2926 14.6173 14.4198 14.5236 14.5136C14.4298 14.6073 14.3026 14.66 14.17 14.66H9.57001C9.48275 14.6595 9.39715 14.6361 9.32172 14.5923C9.24628 14.5484 9.18364 14.4856 9.14001 14.41L7.21001 11.06C7.16886 11.0034 7.14004 10.9388 7.12542 10.8704C7.1108 10.802 7.1107 10.7313 7.12513 10.6628C7.13955 10.5944 7.16818 10.5297 7.20917 10.473C7.25016 10.4163 7.30259 10.3688 7.36307 10.3337C7.42355 10.2985 7.49074 10.2764 7.56029 10.2689C7.62984 10.2613 7.70021 10.2684 7.76684 10.2897C7.83347 10.3111 7.89488 10.3462 7.9471 10.3927C7.99932 10.4393 8.0412 10.4963 8.07001 10.56L9.86001 13.66Z" fill="#9293A5"/>
<path fill-rule="evenodd" clip-rule="evenodd" d="M13.8 11.31H17.52C17.6526 11.31 17.7798 11.2573 17.8736 11.1636C17.9673 11.0698 18.02 10.9426 18.02 10.81C18.0175 10.6782 17.964 10.5525 17.8707 10.4593C17.7775 10.3661 17.6518 10.3126 17.52 10.31H13.8C13.6674 10.31 13.5402 10.3627 13.4465 10.4564C13.3527 10.5502 13.3 10.6774 13.3 10.81C13.3 10.9426 13.3527 11.0698 13.4465 11.1636C13.5402 11.2573 13.6674 11.31 13.8 11.31Z" fill="#9293A5"/>
<path fill-rule="evenodd" clip-rule="evenodd" d="M13.8 9.76001H16.11C16.2426 9.76001 16.3698 9.70733 16.4636 9.61356C16.5573 9.51979 16.61 9.39262 16.61 9.26001C16.6075 9.1282 16.554 9.00251 16.4607 8.90929C16.3675 8.81607 16.2418 8.76257 16.11 8.76001H13.8C13.6674 8.76001 13.5402 8.81269 13.4465 8.90646C13.3527 9.00022 13.3 9.1274 13.3 9.26001C13.3 9.39262 13.3527 9.51979 13.4465 9.61356C13.5402 9.70733 13.6674 9.76001 13.8 9.76001Z" fill="#9293A5"/>
<path fill-rule="evenodd" clip-rule="evenodd" d="M13.8 8.20996H17.52C17.6526 8.20996 17.7798 8.15728 17.8736 8.06351C17.9673 7.96975 18.02 7.84257 18.02 7.70996C18.02 7.57735 17.9673 7.45018 17.8736 7.35641C17.7798 7.26264 17.6526 7.20996 17.52 7.20996H13.8C13.6674 7.20996 13.5402 7.26264 13.4465 7.35641C13.3527 7.45018 13.3 7.57735 13.3 7.70996C13.3 7.84257 13.3527 7.96975 13.4465 8.06351C13.5402 8.15728 13.6674 8.20996 13.8 8.20996Z" fill="#9293A5"/>
<path d="M6.41 3.45999C5.56196 3.46395 4.73411 3.71916 4.03105 4.19339C3.32799 4.66763 2.78125 5.3396 2.45991 6.12441C2.13857 6.90923 2.05705 7.77168 2.22565 8.6028C2.39424 9.43393 2.80539 10.1964 3.40714 10.794C4.0089 11.3916 4.77426 11.7974 5.60654 11.9602C6.43883 12.123 7.30069 12.0354 8.08324 11.7086C8.86579 11.3818 9.53393 10.8304 10.0032 10.124C10.4725 9.41765 10.722 8.58804 10.72 7.73999C10.72 7.60999 9.95001 7.73999 9.93001 7.54999C9.75001 5.54999 8.93 4.54999 6.93 4.23999C6.74 4.23999 6.63 3.45999 6.43 3.45999H6.41ZM6.43 6.08999C6.75546 6.09394 7.07248 6.19405 7.34118 6.37774C7.60988 6.56142 7.81825 6.82047 7.94007 7.1223C8.0619 7.42412 8.09173 7.75524 8.02582 8.07398C7.95992 8.39272 7.80121 8.68484 7.56968 8.9136C7.33815 9.14236 7.04413 9.29754 6.72462 9.3596C6.40511 9.42166 6.07438 9.38784 5.77404 9.26239C5.47371 9.13694 5.21719 8.92546 5.03675 8.65457C4.85632 8.38368 4.76003 8.06547 4.76001 7.73999C4.76001 7.30238 4.93384 6.8827 5.24328 6.57327C5.55271 6.26383 5.9724 6.08999 6.41 6.08999" fill="#F94060"/>
<path d="M19 4.93999H20.27C20.3518 4.93864 20.433 4.95375 20.5089 4.98443C20.5847 5.01511 20.6536 5.06073 20.7114 5.11858C20.7693 5.17642 20.8149 5.24531 20.8456 5.32114C20.8762 5.39697 20.8914 5.4782 20.89 5.55999V18.88H19V4.93999Z" fill="#C0C3EE"/>
<path d="M14.53 13H17.53C17.688 12.9851 17.8474 13.0035 17.9979 13.0537C18.1484 13.104 18.2868 13.1852 18.4041 13.292C18.5215 13.3989 18.6152 13.529 18.6794 13.6742C18.7435 13.8193 18.7767 13.9763 18.7767 14.135C18.7767 14.2937 18.7435 14.4506 18.6794 14.5958C18.6152 14.741 18.5215 14.8711 18.4041 14.978C18.2868 15.0848 18.1484 15.166 17.9979 15.2162C17.8474 15.2665 17.688 15.2848 17.53 15.27H14.53C14.372 15.2848 14.2126 15.2665 14.0621 15.2162C13.9116 15.166 13.7732 15.0848 13.6559 14.978C13.5385 14.8711 13.4448 14.741 13.3806 14.5958C13.3165 14.4506 13.2834 14.2937 13.2834 14.135C13.2834 13.9763 13.3165 13.8193 13.3806 13.6742C13.4448 13.529 13.5385 13.3989 13.6559 13.292C13.7732 13.1852 13.9116 13.104 14.0621 13.0537C14.2126 13.0035 14.372 12.9851 14.53 13" fill="#96CCEE"/>
<path d="M2.79001 17.1C2.70204 17.0987 2.61478 17.1158 2.53383 17.1502C2.45288 17.1847 2.38004 17.2357 2.32001 17.3C2.2557 17.36 2.20468 17.4329 2.17024 17.5138C2.13579 17.5948 2.11868 17.682 2.12001 17.77V19.19C2.12 19.3681 2.15525 19.5445 2.22372 19.7089C2.29218 19.8734 2.39252 20.0226 2.51894 20.1481C2.64536 20.2736 2.79537 20.3729 2.96031 20.4401C3.12526 20.5074 3.30188 20.5413 3.48001 20.54H20.77C20.9477 20.5413 21.1238 20.5073 21.2882 20.4399C21.4526 20.3726 21.6019 20.2732 21.7276 20.1476C21.8532 20.0219 21.9526 19.8726 22.02 19.7082C22.0873 19.5438 22.1213 19.3676 22.12 19.19V17.77C22.1207 17.5945 22.0525 17.4257 21.93 17.3C21.8692 17.2366 21.7963 17.1863 21.7155 17.1519C21.6347 17.1175 21.5478 17.0999 21.46 17.1H16.24C16.152 17.1 16.0649 17.1173 15.9836 17.151C15.9023 17.1847 15.8285 17.234 15.7662 17.2962C15.704 17.3584 15.6547 17.4323 15.621 17.5136C15.5873 17.5949 15.57 17.682 15.57 17.77V18.41H8.67001V17.77C8.67136 17.6816 8.65495 17.5939 8.62175 17.512C8.58856 17.4301 8.53926 17.3557 8.47677 17.2932C8.41429 17.2307 8.33989 17.1814 8.25799 17.1482C8.17609 17.1151 8.08836 17.0986 8.00001 17.1H2.79001Z" fill="#9293A5"/>
<path d="M20 17.1V19.19C20.0013 19.3676 19.9673 19.5438 19.8999 19.7082C19.8326 19.8726 19.7332 20.0219 19.6076 20.1475C19.4819 20.2732 19.3326 20.3726 19.1682 20.4399C19.0038 20.5073 18.8276 20.5413 18.65 20.54H20.77C20.9477 20.5413 21.1238 20.5073 21.2882 20.4399C21.4526 20.3726 21.6019 20.2732 21.7276 20.1475C21.8532 20.0219 21.9526 19.8726 22.0199 19.7082C22.0873 19.5438 22.1213 19.3676 22.12 19.19V17.77C22.1213 17.6825 22.1052 17.5956 22.0727 17.5143C22.0401 17.4331 21.9917 17.3592 21.9303 17.2968C21.8688 17.2345 21.7956 17.1849 21.7149 17.1512C21.6342 17.1174 21.5475 17.1 21.46 17.1H20Z" fill="#6F7188"/>
<path d="M6.41 3.45999C7.53818 3.47054 8.61657 3.92611 9.4106 4.72763C10.2046 5.52914 10.6501 6.61176 10.65 7.73999H8.06C8.06 7.52331 8.01733 7.30875 7.9344 7.10856C7.85148 6.90838 7.72995 6.72648 7.57673 6.57327C7.42351 6.42005 7.24162 6.29851 7.04143 6.21559C6.84124 6.13267 6.62668 6.08999 6.41 6.08999V6.08999V3.45999Z" fill="#FFEABB"/>
</svg>
