<svg width="24" height="24" viewBox="0 0 24 24" fill="none" xmlns="http://www.w3.org/2000/svg">
<path fill-rule="evenodd" clip-rule="evenodd" d="M7.63 14.14L10.43 9.99999C10.5043 9.88992 10.5318 9.75487 10.5064 9.62453C10.4811 9.49419 10.4051 9.37925 10.295 9.30499C10.1849 9.23073 10.0499 9.20323 9.91954 9.22855C9.7892 9.25387 9.67426 9.32992 9.6 9.43999L6.8 13.58C6.76237 13.6335 6.73585 13.6941 6.72201 13.758C6.70817 13.822 6.70728 13.8881 6.71939 13.9524C6.73151 14.0167 6.75639 14.078 6.79256 14.1325C6.82873 14.1871 6.87547 14.2338 6.93 14.27C6.98434 14.3079 7.04567 14.3346 7.11042 14.3485C7.17518 14.3625 7.24206 14.3635 7.30719 14.3514C7.37231 14.3393 7.43439 14.3144 7.48981 14.2781C7.54522 14.2418 7.59288 14.1948 7.63 14.14Z" fill="#F1734D"/>
<path fill-rule="evenodd" clip-rule="evenodd" d="M11.82 9.55997L14.62 11.56C14.7266 11.6354 14.8585 11.6661 14.9874 11.6455C15.1163 11.6249 15.2321 11.5548 15.31 11.45C15.3859 11.3418 15.4169 11.2083 15.3964 11.0777C15.3759 10.9472 15.3055 10.8296 15.2 10.75L12.4 8.74997C12.3473 8.70489 12.2859 8.67125 12.2196 8.65118C12.1532 8.63111 12.0834 8.62505 12.0146 8.63339C11.9458 8.64173 11.8795 8.66429 11.8199 8.69963C11.7602 8.73497 11.7086 8.78231 11.6683 8.83867C11.6279 8.89502 11.5997 8.95915 11.5855 9.02698C11.5712 9.09481 11.5712 9.16486 11.5855 9.23269C11.5998 9.30052 11.628 9.36463 11.6683 9.42098C11.7087 9.47732 11.7604 9.52465 11.82 9.55997V9.55997Z" fill="#9293A5"/>
<path fill-rule="evenodd" clip-rule="evenodd" d="M17.45 10.92L20.14 6.83C20.2129 6.71861 20.2386 6.58281 20.2114 6.45247C20.1842 6.32213 20.1064 6.20794 19.995 6.135C19.8836 6.06207 19.7478 6.03637 19.6175 6.06356C19.4871 6.09075 19.3729 6.16861 19.3 6.28L16.62 10.37C16.5611 10.4798 16.5453 10.6076 16.5757 10.7284C16.6061 10.8492 16.6806 10.9543 16.7844 11.0231C16.8883 11.092 17.0141 11.1195 17.1372 11.1005C17.2603 11.0814 17.3718 11.017 17.45 10.92V10.92Z" fill="#9293A5"/>
<path d="M6.34 13.2C6.6912 13.2 7.03454 13.3039 7.32681 13.4987C7.61908 13.6934 7.84722 13.9702 7.98251 14.2943C8.1178 14.6184 8.1542 14.9753 8.08712 15.32C8.02005 15.6647 7.85249 15.9819 7.60555 16.2316C7.35861 16.4813 7.04332 16.6524 6.69936 16.7233C6.3554 16.7943 5.99815 16.7619 5.67257 16.6302C5.34699 16.4985 5.06763 16.2735 4.86966 15.9834C4.67169 15.6933 4.56395 15.3512 4.56 15C4.55736 14.7646 4.60145 14.531 4.68971 14.3127C4.77798 14.0944 4.90868 13.8958 5.07423 13.7284C5.23978 13.561 5.4369 13.4281 5.65418 13.3374C5.87145 13.2467 6.10456 13.2 6.34 13.2" fill="#F94060"/>
<path d="M10.82 6.78998C11.1702 6.79785 11.5104 6.9089 11.7978 7.10921C12.0852 7.30952 12.3071 7.5902 12.4357 7.91606C12.5643 8.24193 12.5939 8.5985 12.5208 8.94111C12.4477 9.28372 12.275 9.59713 12.0246 9.84208C11.7741 10.087 11.457 10.2526 11.1128 10.3181C10.7687 10.3836 10.4128 10.3461 10.0899 10.2103C9.76698 10.0745 9.49131 9.8464 9.29743 9.55461C9.10355 9.26282 9.00009 8.92031 9 8.56998C9 8.09789 9.18754 7.64514 9.52135 7.31133C9.85516 6.97751 10.3079 6.78998 10.78 6.78998" fill="#96CCEE"/>
<path d="M16.18 10C16.532 10 16.8762 10.1044 17.1689 10.3C17.4616 10.4956 17.6898 10.7736 17.8245 11.0988C17.9592 11.4241 17.9945 11.782 17.9258 12.1273C17.8571 12.4725 17.6876 12.7897 17.4386 13.0387C17.1897 13.2876 16.8725 13.4571 16.5273 13.5258C16.182 13.5945 15.8241 13.5592 15.4988 13.4245C15.1736 13.2898 14.8956 13.0616 14.7 12.7689C14.5044 12.4762 14.4 12.1321 14.4 11.78C14.4 11.3079 14.5875 10.8552 14.9213 10.5213C15.2552 10.1875 15.7079 10 16.18 10Z" fill="#F94060"/>
<path d="M20.49 3.59003C20.842 3.59003 21.1862 3.69442 21.4789 3.89001C21.7716 4.0856 21.9998 4.3636 22.1345 4.68885C22.2692 5.0141 22.3045 5.372 22.2358 5.71729C22.1671 6.06257 21.9976 6.37974 21.7486 6.62868C21.4997 6.87761 21.1825 7.04714 20.8373 7.11582C20.492 7.18451 20.1341 7.14926 19.8088 7.01453C19.4836 6.87981 19.2056 6.65166 19.01 6.35894C18.8144 6.06622 18.71 5.72208 18.71 5.37003C18.71 5.13627 18.756 4.90481 18.8455 4.68885C18.9349 4.47289 19.0661 4.27667 19.2313 4.11138C19.5652 3.77756 20.0179 3.59003 20.49 3.59003" fill="#96CCEE"/>
<path d="M20.74 16.66H16.69C16.4525 16.66 16.26 16.8525 16.26 17.09V18.12C16.26 18.3575 16.4525 18.55 16.69 18.55H20.74C20.9775 18.55 21.17 18.3575 21.17 18.12V17.09C21.17 16.8525 20.9775 16.66 20.74 16.66Z" fill="#F94060"/>
<path fill-rule="evenodd" clip-rule="evenodd" d="M2.84 21.5H21.91C22.0426 21.5 22.1698 21.5527 22.2635 21.6464C22.3573 21.7402 22.41 21.8674 22.41 22C22.41 22.1326 22.3573 22.2598 22.2635 22.3535C22.1698 22.4473 22.0426 22.5 21.91 22.5H2.34C2.20739 22.5 2.08021 22.4473 1.98644 22.3535C1.89267 22.2598 1.84 22.1326 1.84 22V2.42999C1.84 2.29738 1.89267 2.17021 1.98644 2.07644C2.08021 1.98267 2.20739 1.92999 2.34 1.92999C2.4726 1.92999 2.59978 1.98267 2.69355 2.07644C2.78732 2.17021 2.84 2.29738 2.84 2.42999V21.5Z" fill="#9293A5"/>
<path fill-rule="evenodd" clip-rule="evenodd" d="M6.84 18.36V17.68C6.83744 17.5482 6.78394 17.4225 6.69072 17.3293C6.5975 17.2361 6.4718 17.1826 6.34 17.18C6.20739 17.18 6.08021 17.2327 5.98644 17.3264C5.89267 17.4202 5.84 17.5474 5.84 17.68V18.36C5.84 18.4926 5.89267 18.6198 5.98644 18.7135C6.08021 18.8073 6.20739 18.86 6.34 18.86C6.4718 18.8574 6.5975 18.8039 6.69072 18.7107C6.78394 18.6175 6.83744 18.4918 6.84 18.36V18.36Z" fill="#9293A5"/>
<path fill-rule="evenodd" clip-rule="evenodd" d="M11.32 5.82002V5.15002C11.32 5.01742 11.2673 4.89024 11.1735 4.79647C11.0798 4.7027 10.9526 4.65002 10.82 4.65002C10.6874 4.65002 10.5602 4.7027 10.4664 4.79647C10.3727 4.89024 10.32 5.01742 10.32 5.15002V5.82002C10.32 5.95263 10.3727 6.07981 10.4664 6.17358C10.5602 6.26735 10.6874 6.32002 10.82 6.32002C10.9526 6.32002 11.0798 6.26735 11.1735 6.17358C11.2673 6.07981 11.32 5.95263 11.32 5.82002Z" fill="#9293A5"/>
<path fill-rule="evenodd" clip-rule="evenodd" d="M16.68 15.14V14.46C16.6774 14.3282 16.6239 14.2025 16.5307 14.1093C16.4375 14.0161 16.3118 13.9626 16.18 13.96C16.0474 13.96 15.9202 14.0127 15.8264 14.1065C15.7327 14.2002 15.68 14.3274 15.68 14.46V15.14C15.68 15.2726 15.7327 15.3998 15.8264 15.4936C15.9202 15.5873 16.0474 15.64 16.18 15.64C16.3118 15.6375 16.4375 15.584 16.5307 15.4907C16.6239 15.3975 16.6774 15.2718 16.68 15.14Z" fill="#9293A5"/>
<path fill-rule="evenodd" clip-rule="evenodd" d="M21 2.67V2C21 1.86739 20.9473 1.74021 20.8536 1.64645C20.7598 1.55268 20.6326 1.5 20.5 1.5C20.3674 1.5 20.2402 1.55268 20.1464 1.64645C20.0527 1.74021 20 1.86739 20 2V2.67C20 2.80261 20.0527 2.92979 20.1464 3.02355C20.2402 3.11732 20.3674 3.17 20.5 3.17C20.6326 3.17 20.7598 3.11732 20.8536 3.02355C20.9473 2.92979 21 2.80261 21 2.67Z" fill="#9293A5"/>
<path fill-rule="evenodd" clip-rule="evenodd" d="M16.26 20.67H19.17C19.3026 20.67 19.4298 20.6173 19.5235 20.5235C19.6173 20.4298 19.67 20.3026 19.67 20.17C19.6674 20.0382 19.6139 19.9125 19.5207 19.8193C19.4275 19.726 19.3018 19.6725 19.17 19.67H16.26C16.1282 19.6725 16.0025 19.726 15.9093 19.8193C15.8161 19.9125 15.7626 20.0382 15.76 20.17C15.76 20.3026 15.8127 20.4298 15.9064 20.5235C16.0002 20.6173 16.1274 20.67 16.26 20.67Z" fill="#9293A5"/>
</svg>
