<svg width="24" height="24" viewBox="0 0 24 24" fill="none" xmlns="http://www.w3.org/2000/svg">
<path d="M11.63 2.17999C11.7392 2.10605 11.8681 2.06653 12 2.06653C12.1319 2.06653 12.2608 2.10605 12.37 2.17999C13.95 3.27999 20.15 7.53999 20.15 7.53999H3.84999C3.84999 7.53999 10.05 3.27999 11.63 2.17999Z" fill="#F7BF75"/>
<path d="M12.37 2.17999C12.2608 2.10605 12.1319 2.06653 12 2.06653C11.8681 2.06653 11.7392 2.10605 11.63 2.17999L10.69 2.82999L17.78 7.71999H20.41C20.41 7.71999 14 3.27999 12.37 2.17999Z" fill="#F1734D"/>
<path d="M17.78 9.83997H6.14999V19.36H17.78V9.83997Z" fill="#F1734D"/>
<path fill-rule="evenodd" clip-rule="evenodd" d="M13.57 15.2V9.83997C13.57 9.70736 13.6227 9.58018 13.7164 9.48641C13.8102 9.39264 13.9374 9.33997 14.07 9.33997C14.2018 9.34253 14.3275 9.39603 14.4207 9.48925C14.5139 9.58246 14.5674 9.70816 14.57 9.83997V19.37C14.5674 19.5018 14.5139 19.6275 14.4207 19.7207C14.3275 19.8139 14.2018 19.8674 14.07 19.87C13.9374 19.87 13.8102 19.8173 13.7164 19.7235C13.6227 19.6298 13.57 19.5026 13.57 19.37V16.2H10.43V19.37C10.43 19.5026 10.3773 19.6298 10.2835 19.7235C10.1898 19.8173 10.0626 19.87 9.92999 19.87C9.79738 19.87 9.67021 19.8173 9.57644 19.7235C9.48267 19.6298 9.42999 19.5026 9.42999 19.37V9.83997C9.42999 9.70736 9.48267 9.58018 9.57644 9.48641C9.67021 9.39264 9.79738 9.33997 9.92999 9.33997C10.0626 9.33997 10.1898 9.39264 10.2835 9.48641C10.3773 9.58018 10.43 9.70736 10.43 9.83997V15.2H13.57Z" fill="#EAE2F9"/>
<path d="M20.9 19.37H3.09C2.83042 19.37 2.62 19.5804 2.62 19.84V21.46C2.62 21.7196 2.83042 21.93 3.09 21.93H20.9C21.1596 21.93 21.37 21.7196 21.37 21.46V19.84C21.37 19.5804 21.1596 19.37 20.9 19.37Z" fill="#F7BF75"/>
<path d="M7.47999 9.83997H3.84999V19.36H7.47999V9.83997Z" fill="#FFEABB"/>
<path d="M20.16 9.83997H16.53V19.36H20.16V9.83997Z" fill="#FFEABB"/>
<path fill-rule="evenodd" clip-rule="evenodd" d="M21.13 7.99999C21.1313 7.94137 21.1209 7.88308 21.0994 7.82853C21.0779 7.77399 21.0457 7.7243 21.0047 7.68238C20.9637 7.64045 20.9148 7.60715 20.8607 7.58441C20.8067 7.56168 20.7486 7.54997 20.69 7.54999H3.30999C3.19531 7.54995 3.08475 7.59274 2.99999 7.66999C2.95661 7.71296 2.92265 7.76449 2.90026 7.82131C2.87788 7.87812 2.86757 7.93897 2.86999 7.99999V9.39999C2.86787 9.458 2.87839 9.51577 2.90084 9.56931C2.92329 9.62284 2.95712 9.67084 2.99999 9.70999C3.03992 9.75184 3.08807 9.78498 3.14142 9.80735C3.19476 9.82972 3.25215 9.84083 3.30999 9.83999H20.69C20.8067 9.83999 20.9186 9.79363 21.0011 9.71111C21.0836 9.6286 21.13 9.51668 21.13 9.39999V7.99999Z" fill="#F94060"/>
<path fill-rule="evenodd" clip-rule="evenodd" d="M18.77 19.37H20.15V9.83997H18.77V19.37ZM6.09 19.37H7.47V9.83997H6.09V19.37Z" fill="#F7BF75"/>
<path fill-rule="evenodd" clip-rule="evenodd" d="M21.38 19.83C21.3774 19.7071 21.3267 19.5901 21.2388 19.5041C21.151 19.4181 21.0329 19.37 20.91 19.37H18.76V21.93H20.91C21.0346 21.93 21.1542 21.8805 21.2423 21.7923C21.3305 21.7042 21.38 21.5846 21.38 21.46V19.83Z" fill="#F1734D"/>
<path fill-rule="evenodd" clip-rule="evenodd" d="M21.13 7.99999C21.13 7.88235 21.084 7.76938 21.0018 7.68527C20.9195 7.60116 20.8076 7.5526 20.69 7.54999H16.83V9.84999H20.69C20.8067 9.84999 20.9186 9.80363 21.0011 9.72111C21.0836 9.6386 21.13 9.52668 21.13 9.40999V7.99999Z" fill="#D62657"/>
<path fill-rule="evenodd" clip-rule="evenodd" d="M16.53 12.73H20.15C20.2826 12.73 20.4098 12.6773 20.5036 12.5835C20.5973 12.4898 20.65 12.3626 20.65 12.23C20.65 12.0974 20.5973 11.9702 20.5036 11.8764C20.4098 11.7827 20.2826 11.73 20.15 11.73H16.53C16.3974 11.73 16.2702 11.7827 16.1764 11.8764C16.0827 11.9702 16.03 12.0974 16.03 12.23C16.03 12.3626 16.0827 12.4898 16.1764 12.5835C16.2702 12.6773 16.3974 12.73 16.53 12.73Z" fill="#F7BF75"/>
<path fill-rule="evenodd" clip-rule="evenodd" d="M16.53 15.11H20.15C20.2826 15.11 20.4098 15.0573 20.5036 14.9635C20.5973 14.8698 20.65 14.7426 20.65 14.61C20.65 14.4774 20.5973 14.3502 20.5036 14.2564C20.4098 14.1627 20.2826 14.11 20.15 14.11H16.53C16.3974 14.11 16.2702 14.1627 16.1764 14.2564C16.0827 14.3502 16.03 14.4774 16.03 14.61C16.03 14.7426 16.0827 14.8698 16.1764 14.9635C16.2702 15.0573 16.3974 15.11 16.53 15.11Z" fill="#F7BF75"/>
<path fill-rule="evenodd" clip-rule="evenodd" d="M16.53 17.49H20.15C20.2826 17.49 20.4098 17.4373 20.5036 17.3435C20.5973 17.2498 20.65 17.1226 20.65 16.99C20.65 16.8574 20.5973 16.7302 20.5036 16.6364C20.4098 16.5427 20.2826 16.49 20.15 16.49H16.53C16.3974 16.49 16.2702 16.5427 16.1764 16.6364C16.0827 16.7302 16.03 16.8574 16.03 16.99C16.03 17.1226 16.0827 17.2498 16.1764 17.3435C16.2702 17.4373 16.3974 17.49 16.53 17.49Z" fill="#F7BF75"/>
<path fill-rule="evenodd" clip-rule="evenodd" d="M3.84999 12.73H7.46999C7.6026 12.73 7.72978 12.6773 7.82354 12.5835C7.91731 12.4898 7.96999 12.3626 7.96999 12.23C7.96999 12.0974 7.91731 11.9702 7.82354 11.8764C7.72978 11.7827 7.6026 11.73 7.46999 11.73H3.84999C3.71738 11.73 3.59021 11.7827 3.49644 11.8764C3.40267 11.9702 3.34999 12.0974 3.34999 12.23C3.34999 12.3626 3.40267 12.4898 3.49644 12.5835C3.59021 12.6773 3.71738 12.73 3.84999 12.73Z" fill="#F7BF75"/>
<path fill-rule="evenodd" clip-rule="evenodd" d="M3.84999 15.11H7.46999C7.6026 15.11 7.72978 15.0573 7.82354 14.9635C7.91731 14.8698 7.96999 14.7426 7.96999 14.61C7.96999 14.4774 7.91731 14.3502 7.82354 14.2564C7.72978 14.1627 7.6026 14.11 7.46999 14.11H3.84999C3.71738 14.11 3.59021 14.1627 3.49644 14.2564C3.40267 14.3502 3.34999 14.4774 3.34999 14.61C3.34999 14.7426 3.40267 14.8698 3.49644 14.9635C3.59021 15.0573 3.71738 15.11 3.84999 15.11Z" fill="#F7BF75"/>
<path fill-rule="evenodd" clip-rule="evenodd" d="M3.84999 17.49H7.46999C7.5373 17.4941 7.60473 17.4845 7.66823 17.4618C7.73173 17.4391 7.78999 17.4038 7.8395 17.358C7.88901 17.3123 7.92875 17.257 7.95633 17.1954C7.98391 17.1339 7.99876 17.0674 7.99999 17C7.99999 16.8674 7.94731 16.7402 7.85354 16.6464C7.75978 16.5527 7.6326 16.5 7.49999 16.5H3.84999C3.71738 16.5 3.59021 16.5527 3.49644 16.6464C3.40267 16.7402 3.34999 16.8674 3.34999 17C3.35261 17.1309 3.40644 17.2555 3.49993 17.3471C3.59341 17.4387 3.7191 17.49 3.84999 17.49Z" fill="#F7BF75"/>
<path fill-rule="evenodd" clip-rule="evenodd" d="M11.32 6.17999H12.68C12.8126 6.17999 12.9398 6.12731 13.0335 6.03355C13.1273 5.93978 13.18 5.8126 13.18 5.67999C13.18 5.54738 13.1273 5.42021 13.0335 5.32644C12.9398 5.23267 12.8126 5.17999 12.68 5.17999H11.32C11.1874 5.17999 11.0602 5.23267 10.9664 5.32644C10.8727 5.42021 10.82 5.54738 10.82 5.67999C10.82 5.8126 10.8727 5.93978 10.9664 6.03355C11.0602 6.12731 11.1874 6.17999 11.32 6.17999Z" fill="#F94060"/>
</svg>
