<svg width="24" height="24" viewBox="0 0 24 24" fill="none" xmlns="http://www.w3.org/2000/svg">
<path d="M4.46 14.31C4.31633 14.3087 4.17408 14.3384 4.04293 14.3971C3.91179 14.4558 3.79482 14.542 3.7 14.65L2.1 16.45C1.93787 16.6359 1.85017 16.8751 1.85376 17.1218C1.85734 17.3684 1.95196 17.605 2.11943 17.7862C2.28689 17.9673 2.51539 18.0801 2.761 18.1029C3.0066 18.1258 3.25199 18.0571 3.45 17.91V20.59C3.45 20.8552 3.55536 21.1095 3.7429 21.2971C3.93043 21.4846 4.18479 21.59 4.45 21.59C4.71522 21.59 4.96957 21.4846 5.15711 21.2971C5.34465 21.1095 5.45 20.8552 5.45 20.59V17.91C5.63384 18.0476 5.85943 18.1177 6.08888 18.1086C6.31832 18.0995 6.53765 18.0117 6.71 17.86C6.90726 17.6834 7.02646 17.4358 7.04145 17.1715C7.05645 16.9072 6.96602 16.6477 6.79 16.45L5.2 14.65C5.10741 14.5446 4.99367 14.4598 4.86618 14.4012C4.73869 14.3427 4.6003 14.3116 4.46 14.31Z" fill="#96CCEE"/>
<path d="M12.14 9.24998C11.9963 9.24873 11.8541 9.27845 11.7229 9.33712C11.5918 9.39579 11.4748 9.48204 11.38 9.58998L9.78001 11.39C9.60398 11.5877 9.51356 11.8472 9.52855 12.1115C9.54355 12.3758 9.66275 12.6234 9.86001 12.8C10.0382 12.9445 10.2606 13.0234 10.49 13.0234C10.7194 13.0234 10.9418 12.9445 11.12 12.8V20.54C11.12 20.8052 11.2254 21.0595 11.4129 21.2471C11.6004 21.4346 11.8548 21.54 12.12 21.54C12.3852 21.54 12.6396 21.4346 12.8271 21.2471C13.0146 21.0595 13.12 20.8052 13.12 20.54V12.86C13.3178 13.0194 13.5689 13.0976 13.8222 13.0786C14.0756 13.0596 14.3122 12.9449 14.4841 12.7578C14.6559 12.5707 14.7501 12.3252 14.7475 12.0711C14.7449 11.8171 14.6457 11.5735 14.47 11.39L12.87 9.58998C12.7785 9.4858 12.6664 9.40178 12.5407 9.34325C12.4151 9.28471 12.2786 9.25295 12.14 9.24998" fill="#F94060"/>
<path d="M19.81 11.7799C19.6663 11.7787 19.5241 11.8084 19.3929 11.8671C19.2618 11.9258 19.1448 12.012 19.05 12.1199L17.45 13.9199C17.2752 14.119 17.1865 14.3792 17.2034 14.6436C17.2202 14.9079 17.3413 15.1548 17.54 15.3299C17.7124 15.4817 17.9317 15.5695 18.1611 15.5786C18.3906 15.5877 18.6162 15.5175 18.8 15.3799V20.5899C18.8 20.8552 18.9054 21.1095 19.0929 21.2971C19.2804 21.4846 19.5348 21.5899 19.8 21.5899C20.0652 21.5899 20.3196 21.4846 20.5071 21.2971C20.6946 21.1095 20.8 20.8552 20.8 20.5899V15.3799C20.9838 15.5175 21.2094 15.5877 21.4389 15.5786C21.6683 15.5695 21.8876 15.4817 22.06 15.3299C22.2587 15.1548 22.3798 14.9079 22.3966 14.6436C22.4135 14.3792 22.3248 14.119 22.15 13.9199L20.55 12.1199C20.4574 12.0145 20.3437 11.9298 20.2162 11.8712C20.0887 11.8126 19.9503 11.7815 19.81 11.7799Z" fill="#FFEABB"/>
<path fill-rule="evenodd" clip-rule="evenodd" d="M2.71 9.99998C2.73445 9.64858 2.85924 9.31159 3.06956 9.02902C3.27988 8.74646 3.56689 8.5302 3.89649 8.40595C4.22609 8.28169 4.58443 8.25465 4.92894 8.32804C5.27346 8.40143 5.58967 8.57217 5.84 8.81998C5.88687 8.86646 5.92407 8.92176 5.94945 8.98269C5.97483 9.04362 5.9879 9.10897 5.9879 9.17498C5.9879 9.24098 5.97483 9.30633 5.94945 9.36726C5.92407 9.42819 5.88687 9.48349 5.84 9.52998C5.74654 9.62159 5.62088 9.6729 5.49 9.6729C5.35913 9.6729 5.23347 9.62159 5.14 9.52998C5.06162 9.45054 4.96818 9.38751 4.86517 9.34459C4.76215 9.30166 4.65161 9.2797 4.54 9.27998C4.34382 9.27953 4.15383 9.34859 4.00372 9.4749C3.85361 9.60121 3.75309 9.77661 3.72 9.96998H4.72C4.85181 9.97254 4.97751 10.026 5.07072 10.1193C5.16394 10.2125 5.21744 10.3382 5.22 10.47C5.22 10.6026 5.16733 10.7298 5.07356 10.8235C4.97979 10.9173 4.85261 10.97 4.72 10.97H3.72C3.75096 11.1652 3.85055 11.3429 4.00087 11.4712C4.15119 11.5996 4.34236 11.67 4.54 11.67C4.76458 11.6663 4.97924 11.5768 5.14 11.42C5.23347 11.3284 5.35913 11.277 5.49 11.277C5.62088 11.277 5.74654 11.3284 5.84 11.42C5.88687 11.4665 5.92407 11.5218 5.94945 11.5827C5.97483 11.6436 5.9879 11.709 5.9879 11.775C5.9879 11.841 5.97483 11.9063 5.94945 11.9673C5.92407 12.0282 5.88687 12.0835 5.84 12.13C5.59453 12.3802 5.28237 12.5546 4.94064 12.6326C4.59891 12.7105 4.24198 12.6887 3.9123 12.5696C3.58262 12.4506 3.29405 12.2394 3.08092 11.9612C2.86778 11.6829 2.73904 11.3493 2.71 11H2.52C2.3874 11 2.26022 10.9473 2.16645 10.8535C2.07268 10.7598 2.02 10.6326 2.02 10.5C2.02 10.3674 2.07268 10.2402 2.16645 10.1464C2.26022 10.0527 2.3874 9.99998 2.52 9.99998H2.71Z" fill="#96CCEE"/>
<path fill-rule="evenodd" clip-rule="evenodd" d="M19.3 8.33998L18.3 7.14998C18.2577 7.09984 18.2259 7.04172 18.2064 6.97905C18.187 6.91638 18.1804 6.85045 18.1869 6.78517C18.1934 6.71988 18.213 6.65658 18.2444 6.599C18.2759 6.54142 18.3186 6.49075 18.37 6.44998C18.474 6.3665 18.6066 6.32709 18.7393 6.34017C18.872 6.35325 18.9943 6.4178 19.08 6.51998L19.76 7.36998L20.44 6.51998C20.5257 6.4178 20.648 6.35325 20.7807 6.34017C20.9134 6.32709 21.046 6.3665 21.15 6.44998C21.2014 6.49075 21.2441 6.54142 21.2756 6.599C21.307 6.65658 21.3266 6.71988 21.3331 6.78517C21.3397 6.85045 21.333 6.91638 21.3136 6.97905C21.2941 7.04172 21.2623 7.09984 21.22 7.14998L20.22 8.33998V8.51998H20.37C20.4439 8.50009 20.5213 8.49741 20.5964 8.51216C20.6715 8.52692 20.7422 8.5587 20.803 8.60507C20.8639 8.65144 20.9133 8.71115 20.9474 8.77962C20.9816 8.84808 20.9996 8.92347 21 8.99998C21 9.13259 20.9473 9.25977 20.8536 9.35354C20.7598 9.4473 20.6326 9.49998 20.5 9.49998H20.3V10.2C20.3 10.3326 20.2473 10.4598 20.1536 10.5535C20.0598 10.6473 19.9326 10.7 19.8 10.7C19.6674 10.7 19.5402 10.6473 19.4465 10.5535C19.3527 10.4598 19.3 10.3326 19.3 10.2V9.49998H19.15C19.0174 9.49998 18.8902 9.4473 18.7964 9.35354C18.7027 9.25977 18.65 9.13259 18.65 8.99998C18.65 8.86737 18.7027 8.7402 18.7964 8.64643C18.8902 8.55266 19.0174 8.49998 19.15 8.49998H19.3V8.33998Z" fill="#FFEABB"/>
<path fill-rule="evenodd" clip-rule="evenodd" d="M11.5 2.60997V2.40997C11.5 2.27737 11.5527 2.15019 11.6464 2.05642C11.7402 1.96265 11.8674 1.90997 12 1.90997C12.1326 1.90997 12.2598 1.96265 12.3536 2.05642C12.4473 2.15019 12.5 2.27737 12.5 2.40997V2.60997C12.6818 2.67965 12.8458 2.78896 12.98 2.92997C13.1064 3.05891 13.2111 3.20751 13.29 3.36997C13.33 3.4922 13.3224 3.62503 13.2686 3.74186C13.2148 3.85868 13.1189 3.95087 13 3.99997C12.9403 4.02627 12.876 4.0404 12.8108 4.04153C12.7457 4.04266 12.6809 4.03077 12.6204 4.00656C12.5598 3.98235 12.5047 3.94629 12.4583 3.90052C12.4119 3.85474 12.3751 3.80016 12.35 3.73997C12.3294 3.69081 12.2988 3.64652 12.26 3.60997C12.1867 3.55017 12.0946 3.51829 12 3.51997C11.8939 3.51997 11.7922 3.56212 11.7172 3.63713C11.6421 3.71214 11.6 3.81389 11.6 3.91997C11.6 4.02606 11.6421 4.1278 11.7172 4.20282C11.7922 4.27783 11.8939 4.31997 12 4.31997C12.3155 4.33437 12.6168 4.455 12.8551 4.66228C13.0934 4.86956 13.2545 5.15131 13.3125 5.46176C13.3704 5.7722 13.3216 6.09312 13.1741 6.37237C13.0266 6.65161 12.7891 6.87279 12.5 6.99997V7.20997C12.4974 7.34178 12.4439 7.46747 12.3507 7.56069C12.2575 7.65391 12.1318 7.70741 12 7.70997C11.8674 7.70997 11.7402 7.65729 11.6464 7.56353C11.5527 7.46976 11.5 7.34258 11.5 7.20997V6.99997C11.3225 6.93559 11.1605 6.83468 11.0244 6.70377C10.8883 6.57286 10.7812 6.41486 10.71 6.23997C10.6814 6.17908 10.6653 6.11304 10.6628 6.04579C10.6603 5.97855 10.6714 5.91149 10.6954 5.84863C10.7194 5.78578 10.7559 5.72842 10.8026 5.67999C10.8493 5.63156 10.9053 5.59306 10.9673 5.5668C11.0293 5.54054 11.0959 5.52705 11.1632 5.52714C11.2305 5.52724 11.297 5.54092 11.3589 5.56736C11.4208 5.5938 11.4767 5.63246 11.5233 5.68102C11.5699 5.72958 11.6062 5.78705 11.63 5.84997C11.6468 5.89866 11.6741 5.94305 11.71 5.97997C11.754 6.03136 11.8104 6.07074 11.8738 6.09443C11.9371 6.11812 12.0055 6.12533 12.0724 6.11541C12.1394 6.10549 12.2027 6.07875 12.2565 6.03769C12.3103 5.99663 12.3528 5.9426 12.38 5.88065C12.4072 5.8187 12.4183 5.75085 12.4121 5.68346C12.406 5.61607 12.3829 5.55134 12.3449 5.49533C12.3069 5.43931 12.2554 5.39384 12.1951 5.36318C12.1347 5.33251 12.0676 5.31764 12 5.31997C11.6717 5.32142 11.3533 5.20745 11.1006 4.99798C10.8478 4.7885 10.6766 4.49685 10.6171 4.174C10.5575 3.85115 10.6133 3.51763 10.7747 3.23174C10.9361 2.94585 11.1928 2.72578 11.5 2.60997Z" fill="#F94060"/>
</svg>
