<svg width="24" height="24" viewBox="0 0 24 24" fill="none" xmlns="http://www.w3.org/2000/svg">
<path d="M21.43 8.78998H2.57C2.49536 8.79023 2.42153 8.8054 2.35283 8.83459C2.28414 8.86378 2.22198 8.90642 2.17 8.95998C2.06121 9.0687 2.00006 9.21618 2 9.36998V20.22C2 20.3712 2.06005 20.5161 2.16695 20.623C2.27384 20.7299 2.41883 20.79 2.57 20.79H21.43C21.5812 20.79 21.7262 20.7299 21.8331 20.623C21.9399 20.5161 22 20.3712 22 20.22V9.36998C22 9.21787 21.9403 9.07184 21.8337 8.96335C21.7271 8.85486 21.5821 8.7926 21.43 8.78998Z" fill="#FFEABB"/>
<path d="M22 17.29C21.0717 17.29 20.1815 17.6587 19.5251 18.3151C18.8687 18.9715 18.5 19.8617 18.5 20.79H21.43C21.5812 20.79 21.7262 20.7299 21.8331 20.623C21.9399 20.5161 22 20.3711 22 20.22V17.29Z" fill="#F7BF75"/>
<path d="M2 17.29V20.22C2 20.3711 2.06005 20.5161 2.16695 20.623C2.27384 20.7299 2.41883 20.79 2.57 20.79H5.5C5.5 19.8617 5.13125 18.9715 4.47487 18.3151C3.8185 17.6587 2.92826 17.29 2 17.29Z" fill="#F7BF75"/>
<path d="M18.5 8.78998C18.5 9.71824 18.8687 10.6085 19.5251 11.2649C20.1815 11.9212 21.0717 12.29 22 12.29V9.36998C22 9.21787 21.9403 9.07184 21.8337 8.96335C21.7271 8.85486 21.5821 8.7926 21.43 8.78998H18.5Z" fill="#F7BF75"/>
<path d="M2.57 8.78998C2.41791 8.7926 2.27295 8.85486 2.16633 8.96335C2.05971 9.07184 1.99998 9.21787 2 9.36998V12.29C2.92826 12.29 3.8185 11.9212 4.47487 11.2649C5.13125 10.6085 5.5 9.71824 5.5 8.78998H2.57Z" fill="#F7BF75"/>
<path d="M8.7 3.20999C8.5571 3.20749 8.41532 3.23565 8.28422 3.29258C8.15312 3.3495 8.03574 3.43387 7.94 3.53999L6.34 5.34999C6.16398 5.54774 6.07356 5.80721 6.08855 6.07153C6.10355 6.33584 6.22274 6.58343 6.42 6.75999C6.59816 6.90452 6.8206 6.9834 7.05 6.9834C7.27941 6.9834 7.50185 6.90452 7.68 6.75999V9.48999C7.68 9.75521 7.78536 10.0096 7.9729 10.1971C8.16043 10.3846 8.41479 10.49 8.68 10.49C8.94522 10.49 9.19958 10.3846 9.38711 10.1971C9.57465 10.0096 9.68 9.75521 9.68 9.48999V6.80999C9.85894 6.95707 10.0834 7.03748 10.315 7.03748C10.5466 7.03748 10.7711 6.95707 10.95 6.80999C11.0532 6.71992 11.1368 6.60961 11.1956 6.48591C11.2544 6.3622 11.2871 6.22773 11.2918 6.09084C11.2965 5.95395 11.273 5.81756 11.2228 5.69012C11.1726 5.56268 11.0968 5.44691 11 5.34999L9.43 3.53999C9.33765 3.43764 9.22512 3.35548 9.09949 3.2987C8.97387 3.24191 8.83786 3.21171 8.7 3.20999" fill="#96CCEE"/>
<path d="M15.31 11.38C15.452 11.3798 15.5923 11.3494 15.7216 11.2908C15.8509 11.2321 15.9663 11.1466 16.06 11.04L17.66 9.23998C17.836 9.04223 17.9264 8.78275 17.9114 8.51844C17.8964 8.25412 17.7773 8.00654 17.58 7.82998C17.4018 7.68545 17.1794 7.60657 16.95 7.60657C16.7206 7.60657 16.4982 7.68545 16.32 7.82998V5.09998C16.32 4.83476 16.2146 4.58041 16.0271 4.39287C15.8396 4.20533 15.5852 4.09998 15.32 4.09998C15.0548 4.09998 14.8004 4.20533 14.6129 4.39287C14.4254 4.58041 14.32 4.83476 14.32 5.09998V7.76998C14.1201 7.64028 13.8805 7.58622 13.6443 7.61753C13.4081 7.64883 13.1908 7.76345 13.0316 7.94073C12.8724 8.11802 12.7818 8.34632 12.776 8.58451C12.7702 8.82271 12.8496 9.05515 13 9.23998L14.6 11.04C14.6926 11.1454 14.8063 11.2301 14.9338 11.2887C15.0613 11.3473 15.1997 11.3784 15.34 11.38" fill="#F94060"/>
<path d="M22 9.36998C22 9.21787 21.9403 9.07184 21.8337 8.96335C21.7271 8.85486 21.5821 8.7926 21.43 8.78998H20V20.79H21.39C21.5412 20.79 21.6862 20.7299 21.7931 20.623C21.8999 20.5161 21.96 20.3712 21.96 20.22L22 9.36998Z" fill="#F7BF75"/>
<path d="M20 8.78998V11.69C20.5893 12.0906 21.2875 12.3001 22 12.29V9.36998C22 9.21787 21.9403 9.07184 21.8337 8.96335C21.7271 8.85486 21.5821 8.7926 21.43 8.78998H20ZM22 17.29C21.2865 17.2828 20.5881 17.4958 20 17.9V20.79H21.39C21.5412 20.79 21.6862 20.7299 21.7931 20.623C21.8999 20.5161 21.96 20.3712 21.96 20.22L22 17.29Z" fill="#F1734D"/>
<path fill-rule="evenodd" clip-rule="evenodd" d="M10.44 19.49H13.56C13.6926 19.49 13.8198 19.4373 13.9136 19.3435C14.0073 19.2498 14.06 19.1226 14.06 18.99C14.06 18.8574 14.0073 18.7302 13.9136 18.6364C13.8198 18.5427 13.6926 18.49 13.56 18.49H10.44C10.3074 18.49 10.1802 18.5427 10.0864 18.6364C9.99268 18.7302 9.94 18.8574 9.94 18.99C9.94 19.1226 9.99268 19.2498 10.0864 19.3435C10.1802 19.4373 10.3074 19.49 10.44 19.49Z" fill="#F1734D"/>
<path fill-rule="evenodd" clip-rule="evenodd" d="M11.5 12.52V12.29C11.5 12.1574 11.5527 12.0302 11.6464 11.9364C11.7402 11.8427 11.8674 11.79 12 11.79C12.1326 11.79 12.2598 11.8427 12.3536 11.9364C12.4473 12.0302 12.5 12.1574 12.5 12.29V12.52C12.6914 12.5927 12.8652 12.7052 13.01 12.85C13.1421 12.978 13.2475 13.1309 13.32 13.3C13.3462 13.361 13.36 13.4266 13.3605 13.4929C13.3611 13.5593 13.3485 13.6251 13.3233 13.6866C13.2982 13.748 13.2611 13.8038 13.2142 13.8508C13.1672 13.8977 13.1114 13.9348 13.05 13.96C12.9897 13.986 12.9248 13.9996 12.8592 14.0001C12.7935 14.0006 12.7285 13.9878 12.6678 13.9626C12.6072 13.9374 12.5522 13.9003 12.5062 13.8535C12.4602 13.8067 12.4241 13.751 12.4 13.69C12.3794 13.6408 12.3488 13.5965 12.31 13.56C12.2727 13.5201 12.2279 13.4881 12.1781 13.4657C12.1283 13.4434 12.0746 13.4313 12.02 13.43V13.43C11.906 13.43 11.7966 13.4753 11.7159 13.5559C11.6353 13.6366 11.59 13.7459 11.59 13.86C11.59 13.974 11.6353 14.0834 11.7159 14.164C11.7966 14.2447 11.906 14.29 12.02 14.29C12.3531 14.2961 12.6737 14.4176 12.9273 14.6336C13.1808 14.8497 13.3517 15.147 13.4106 15.4748C13.4696 15.8027 13.4131 16.1409 13.2507 16.4317C13.0883 16.7226 12.83 16.9481 12.52 17.07V17.29C12.52 17.4226 12.4673 17.5498 12.3736 17.6435C12.2798 17.7373 12.1526 17.79 12.02 17.79C11.8874 17.79 11.7602 17.7373 11.6664 17.6435C11.5727 17.5498 11.52 17.4226 11.52 17.29V17.07C11.3286 16.9972 11.1548 16.8848 11.01 16.74C10.8755 16.6101 10.7699 16.4534 10.7 16.28C10.6673 16.2184 10.6479 16.1507 10.643 16.0811C10.638 16.0116 10.6476 15.9418 10.6713 15.8762C10.6949 15.8107 10.732 15.7507 10.7801 15.7003C10.8282 15.6499 10.8864 15.6101 10.9508 15.5835C11.0152 15.5569 11.0845 15.5441 11.1542 15.5458C11.2239 15.5476 11.2924 15.5638 11.3554 15.5936C11.4185 15.6234 11.4745 15.6661 11.5201 15.7188C11.5657 15.7716 11.5997 15.8333 11.62 15.9C11.6411 15.9515 11.6756 15.9964 11.72 16.03C11.758 16.0716 11.8044 16.1046 11.8561 16.127C11.9078 16.1494 11.9637 16.1607 12.02 16.16C12.124 16.1442 12.219 16.0916 12.2875 16.0118C12.3561 15.932 12.3939 15.8302 12.3939 15.725C12.3939 15.6197 12.3561 15.518 12.2875 15.4382C12.219 15.3584 12.124 15.3058 12.02 15.29C11.6847 15.2901 11.36 15.1725 11.1026 14.9575C10.8452 14.7425 10.6716 14.444 10.612 14.114C10.5525 13.784 10.6108 13.4436 10.7767 13.1522C10.9427 12.8608 11.2058 12.6371 11.52 12.52H11.5Z" fill="#F1734D"/>
</svg>
