<svg width="24" height="24" viewBox="0 0 24 24" fill="none" xmlns="http://www.w3.org/2000/svg">
<path d="M2.91 5.71997H8.82C9.06135 5.71997 9.29281 5.81585 9.46347 5.9865C9.63413 6.15716 9.73 6.38862 9.73 6.62997V17.37C9.73 17.6113 9.63413 17.8428 9.46347 18.0134C9.29281 18.1841 9.06135 18.28 8.82 18.28H2.91C2.66865 18.28 2.43719 18.1841 2.26653 18.0134C2.09587 17.8428 2 17.6113 2 17.37V6.62997C2 6.38862 2.09587 6.15716 2.26653 5.9865C2.43719 5.81585 2.66865 5.71997 2.91 5.71997" fill="#EAE2F9"/>
<path d="M22 13.35C22.002 14.0941 21.7831 14.822 21.3712 15.4416C20.9592 16.0613 20.3727 16.5448 19.6858 16.8309C18.999 17.117 18.2426 17.1929 17.5126 17.0489C16.7826 16.905 16.1117 16.5477 15.5848 16.0222C15.058 15.4968 14.6989 14.8268 14.553 14.0972C14.4071 13.3676 14.481 12.611 14.7653 11.9234C15.0496 11.2358 15.5315 10.6479 16.15 10.2344C16.7686 9.82075 17.4959 9.59998 18.24 9.59998C19.2355 9.59997 20.1903 9.99474 20.8952 10.6977C21.6 11.4007 21.9974 12.3545 22 13.35" fill="#FFEABB"/>
<path d="M2 16V17.34C2 17.5813 2.09587 17.8128 2.26653 17.9835C2.43719 18.1541 2.66865 18.25 2.91 18.25H8.82C9.06135 18.25 9.29281 18.1541 9.46347 17.9835C9.63413 17.8128 9.73 17.5813 9.73 17.34V16H2Z" fill="#9293A5"/>
<path d="M7.11 5.71997C7.34786 5.7252 7.57422 5.82338 7.74057 5.99347C7.90693 6.16357 8.00005 6.39205 8 6.62997V17.37C8 17.6113 7.90412 17.8428 7.73346 18.0134C7.56281 18.1841 7.33134 18.28 7.09 18.28H8.82C9.06134 18.28 9.29281 18.1841 9.46346 18.0134C9.63412 17.8428 9.73 17.6113 9.73 17.37V6.62997C9.73 6.38862 9.63412 6.15716 9.46346 5.9865C9.29281 5.81585 9.06134 5.71997 8.82 5.71997H7.11Z" fill="#C0C3EE"/>
<path d="M8 16V17.34C8 17.5813 7.90412 17.8128 7.73346 17.9835C7.56281 18.1541 7.33134 18.25 7.09 18.25H8.82C9.06134 18.25 9.29281 18.1541 9.46346 17.9835C9.63412 17.8128 9.73 17.5813 9.73 17.34V16H8Z" fill="#6F7188"/>
<path d="M21.13 13.35C21.132 13.922 20.9642 14.4817 20.6478 14.9583C20.3315 15.4349 19.8808 15.8068 19.3529 16.0271C18.825 16.2474 18.2436 16.306 17.6823 16.1957C17.1211 16.0853 16.6052 15.8108 16.2 15.407C15.7948 15.0033 15.5186 14.4883 15.4063 13.9275C15.2939 13.3666 15.3506 12.785 15.569 12.2563C15.7875 11.7277 16.1579 11.2757 16.6334 10.9577C17.1088 10.6397 17.668 10.47 18.24 10.47C19.0047 10.47 19.7383 10.7731 20.28 11.3129C20.8217 11.8527 21.1273 12.5852 21.13 13.35" fill="#F7BF75"/>
<path fill-rule="evenodd" clip-rule="evenodd" d="M17.74 11.5V11.4C17.74 11.2674 17.7927 11.1402 17.8865 11.0464C17.9802 10.9526 18.1074 10.9 18.24 10.9C18.3726 10.9 18.4998 10.9526 18.5936 11.0464C18.6873 11.1402 18.74 11.2674 18.74 11.4V11.5C18.8803 11.5595 19.0064 11.6482 19.11 11.76C19.2223 11.8709 19.3108 12.0036 19.37 12.15C19.4204 12.2708 19.4214 12.4065 19.3727 12.5281C19.3241 12.6496 19.2298 12.7472 19.11 12.8C18.9878 12.8508 18.8506 12.852 18.7274 12.8035C18.6042 12.755 18.5048 12.6605 18.45 12.54C18.4431 12.5083 18.4254 12.48 18.4 12.46C18.379 12.4393 18.354 12.4233 18.3264 12.413C18.2988 12.4026 18.2694 12.3982 18.24 12.4C18.2065 12.3929 18.1718 12.3933 18.1385 12.4013C18.1052 12.4094 18.0741 12.4247 18.0475 12.4463C18.0209 12.4678 17.9994 12.4951 17.9847 12.526C17.97 12.5569 17.9623 12.5907 17.9623 12.625C17.9623 12.6592 17.97 12.693 17.9847 12.724C17.9994 12.7549 18.0209 12.7821 18.0475 12.8037C18.0741 12.8252 18.1052 12.8406 18.1385 12.8486C18.1718 12.8566 18.2065 12.8571 18.24 12.85C18.5662 12.85 18.8791 12.9796 19.1098 13.2102C19.3404 13.4409 19.47 13.7537 19.47 14.08C19.4687 14.3183 19.3993 14.5513 19.27 14.7515C19.1406 14.9518 18.9568 15.1108 18.74 15.21V15.31C18.74 15.4426 18.6873 15.5697 18.5936 15.6635C18.4998 15.7573 18.3726 15.81 18.24 15.81C18.1074 15.81 17.9802 15.7573 17.8865 15.6635C17.7927 15.5697 17.74 15.4426 17.74 15.31V15.21C17.6062 15.1442 17.4845 15.0563 17.38 14.95C17.2614 14.8423 17.1691 14.7089 17.11 14.56C17.084 14.4997 17.0703 14.4348 17.0699 14.3691C17.0694 14.3035 17.0822 14.2384 17.1074 14.1778C17.1326 14.1172 17.1697 14.0622 17.2165 14.0162C17.2633 13.9702 17.3189 13.9341 17.38 13.91C17.5008 13.8596 17.6366 13.8586 17.7581 13.9072C17.8796 13.9558 17.9773 14.0502 18.03 14.17C18.0254 14.1931 18.0254 14.2169 18.03 14.24C18.0727 14.2826 18.1298 14.3076 18.19 14.31V14.31C18.2198 14.31 18.2492 14.304 18.2766 14.2923C18.3039 14.2806 18.3287 14.2635 18.3492 14.242C18.3698 14.2205 18.3858 14.1951 18.3962 14.1672C18.4067 14.1394 18.4114 14.1097 18.41 14.08C18.41 14.019 18.3858 13.9605 18.3426 13.9173C18.2995 13.8742 18.241 13.85 18.18 13.85C17.8997 13.8481 17.6284 13.7505 17.4112 13.5733C17.1939 13.3962 17.0436 13.1502 16.9853 12.876C16.927 12.6018 16.964 12.3159 17.0904 12.0656C17.2167 11.8154 17.4247 11.6158 17.68 11.5H17.74Z" fill="#F1734D"/>
<path fill-rule="evenodd" clip-rule="evenodd" d="M13.15 13.85C13.215 13.951 13.2422 14.0718 13.2268 14.1909C13.2115 14.3101 13.1546 14.42 13.0661 14.5013C12.9776 14.5826 12.8633 14.63 12.7433 14.6353C12.6233 14.6405 12.5052 14.6032 12.41 14.53L11.51 13.73C11.4593 13.6805 11.419 13.6214 11.3915 13.5562C11.3641 13.4909 11.3499 13.4208 11.35 13.35C11.3501 13.2807 11.3644 13.2121 11.3919 13.1485C11.4194 13.0849 11.4596 13.0275 11.51 12.98L12.41 12.18C12.5052 12.0877 12.6325 12.0361 12.765 12.0361C12.8975 12.0361 13.0249 12.0877 13.12 12.18C13.1923 12.269 13.2317 12.3803 13.2317 12.495C13.2317 12.6097 13.1923 12.7209 13.12 12.81H14.46C14.5918 12.8125 14.7175 12.866 14.8107 12.9592C14.9039 13.0525 14.9574 13.1782 14.96 13.31C14.96 13.4426 14.9073 13.5698 14.8136 13.6635C14.7198 13.7573 14.5926 13.81 14.46 13.81L13.15 13.85Z" fill="#FFEABB"/>
<path fill-rule="evenodd" clip-rule="evenodd" d="M11.07 9.44997C10.9959 9.36172 10.9553 9.25019 10.9553 9.13497C10.9553 9.01976 10.9959 8.90822 11.07 8.81997C11.1122 8.77 11.164 8.72899 11.2223 8.69934C11.2806 8.6697 11.3442 8.65202 11.4095 8.64736C11.4747 8.6427 11.5402 8.65115 11.6021 8.67221C11.6641 8.69327 11.7211 8.72651 11.77 8.76997L12.67 9.56997C12.724 9.61738 12.7671 9.67586 12.7964 9.74144C12.8258 9.80701 12.8406 9.87814 12.84 9.94997C12.8405 10.0203 12.8256 10.09 12.7962 10.1539C12.7668 10.2178 12.7237 10.2745 12.67 10.32L11.77 11.12C11.7244 11.1665 11.6699 11.2035 11.6098 11.2288C11.5497 11.254 11.4852 11.267 11.42 11.267C11.3548 11.267 11.2903 11.254 11.2302 11.2288C11.1701 11.2035 11.1156 11.1665 11.07 11.12C10.9977 11.0309 10.9583 10.9197 10.9583 10.805C10.9583 10.6903 10.9977 10.579 11.07 10.49H9.73001C9.5974 10.49 9.47023 10.4373 9.37646 10.3435C9.28269 10.2498 9.23001 10.1226 9.23001 9.98997C9.23001 9.85736 9.28269 9.73019 9.37646 9.63642C9.47023 9.54265 9.5974 9.48997 9.73001 9.48997L11.07 9.44997Z" fill="#C0C3EE"/>
</svg>
