<svg width="24" height="24" viewBox="0 0 24 24" fill="none" xmlns="http://www.w3.org/2000/svg">
<path d="M6.18 13.13C7.00673 13.13 7.81489 13.3752 8.50228 13.8345C9.18968 14.2938 9.72544 14.9466 10.0418 15.7104C10.3582 16.4742 10.441 17.3146 10.2797 18.1255C10.1184 18.9363 9.72029 19.6811 9.13571 20.2657C8.55112 20.8503 7.80632 21.2484 6.99548 21.4097C6.18464 21.571 5.34418 21.4882 4.58038 21.1718C3.81659 20.8554 3.16376 20.3197 2.70446 19.6323C2.24515 18.9449 2 18.1367 2 17.31C2 16.2014 2.44039 15.1382 3.22429 14.3543C4.0082 13.5704 5.07139 13.13 6.18 13.13" fill="#FFEABB"/>
<path d="M17.82 2.51001C18.6467 2.51001 19.4549 2.75516 20.1423 3.21447C20.8297 3.67377 21.3655 4.3266 21.6818 5.09039C21.9982 5.85419 22.081 6.69465 21.9197 7.50549C21.7584 8.31633 21.3603 9.06113 20.7757 9.64572C20.1911 10.2303 19.4463 10.6284 18.6355 10.7897C17.8247 10.951 16.9842 10.8682 16.2204 10.5518C15.4566 10.2355 14.8038 9.69969 14.3445 9.01229C13.8852 8.3249 13.64 7.51674 13.64 6.69001C13.64 5.58141 14.0804 4.51821 14.8643 3.7343C15.6482 2.9504 16.7114 2.51001 17.82 2.51001" fill="#FFEABB"/>
<path d="M6.18001 14C6.84455 14 7.49417 14.1971 8.04672 14.5663C8.59927 14.9355 9.02993 15.4602 9.28424 16.0742C9.53855 16.6881 9.60509 17.3637 9.47545 18.0155C9.3458 18.6673 9.02579 19.266 8.55589 19.7359C8.08598 20.2058 7.48729 20.5258 6.83551 20.6554C6.18374 20.7851 5.50815 20.7185 4.89419 20.4642C4.28023 20.2099 3.75547 19.7793 3.38627 19.2267C3.01707 18.6742 2.82001 18.0245 2.82001 17.36C2.82001 16.4689 3.17401 15.6142 3.80413 14.9841C4.43425 14.354 5.28888 14 6.18001 14" fill="#F7BF75"/>
<path d="M17.82 3.51C18.4489 3.51 19.0638 3.6965 19.5867 4.04592C20.1097 4.39534 20.5172 4.89199 20.7579 5.47306C20.9986 6.05413 21.0616 6.69352 20.9389 7.31038C20.8162 7.92724 20.5133 8.49386 20.0686 8.93859C19.6239 9.38333 19.0572 9.68619 18.4404 9.80889C17.8235 9.93159 17.1841 9.86862 16.6031 9.62793C16.022 9.38725 15.5253 8.97966 15.1759 8.45671C14.8265 7.93376 14.64 7.31894 14.64 6.69C14.6387 6.27202 14.72 5.85791 14.8794 5.4715C15.0387 5.08509 15.2729 4.734 15.5685 4.43845C15.864 4.1429 16.2151 3.90871 16.6015 3.74937C16.9879 3.59003 17.402 3.50867 17.82 3.51" fill="#F7BF75"/>
<path fill-rule="evenodd" clip-rule="evenodd" d="M10.77 10.48C10.6505 10.4703 10.5386 10.4171 10.4557 10.3305C10.3728 10.2439 10.3245 10.1298 10.32 10.01C10.3159 9.94433 10.3249 9.87848 10.3463 9.81626C10.3678 9.75404 10.4013 9.69667 10.4449 9.64743C10.4886 9.59819 10.5416 9.55805 10.6008 9.52932C10.66 9.50059 10.7243 9.48384 10.79 9.48001L12 9.41001C12.0706 9.40406 12.1416 9.4145 12.2076 9.44051C12.2735 9.46653 12.3325 9.50743 12.38 9.56002C12.4314 9.60842 12.4715 9.66758 12.4974 9.73326C12.5234 9.79894 12.5345 9.86954 12.53 9.94001L12.45 11.17C12.45 11.3026 12.3973 11.4298 12.3035 11.5236C12.2098 11.6173 12.0826 11.67 11.95 11.67C11.8174 11.67 11.6902 11.6173 11.5964 11.5236C11.5027 11.4298 11.45 11.3026 11.45 11.17L10.09 12.53C9.99484 12.6223 9.86751 12.6739 9.73499 12.6739C9.60246 12.6739 9.47514 12.6223 9.37999 12.53C9.33312 12.4835 9.29592 12.4282 9.27054 12.3673C9.24516 12.3064 9.23209 12.241 9.23209 12.175C9.23209 12.109 9.24516 12.0437 9.27054 11.9827C9.29592 11.9218 9.33312 11.8665 9.37999 11.82L10.77 10.48ZM12.52 13.1L13.88 11.74C13.9751 11.6478 14.1025 11.5962 14.235 11.5962C14.3675 11.5962 14.4948 11.6478 14.59 11.74C14.6369 11.7865 14.674 11.8418 14.6994 11.9027C14.7248 11.9637 14.7379 12.029 14.7379 12.095C14.7379 12.161 14.7248 12.2264 14.6994 12.2873C14.674 12.3482 14.6369 12.4035 14.59 12.45L13.23 13.81C13.3626 13.81 13.4898 13.8627 13.5835 13.9565C13.6773 14.0502 13.73 14.1774 13.73 14.31C13.73 14.4426 13.6773 14.5698 13.5835 14.6636C13.4898 14.7573 13.3626 14.81 13.23 14.81L12 14.88C11.9303 14.8851 11.8604 14.8753 11.7948 14.8511C11.7293 14.827 11.6697 14.7891 11.62 14.74C11.5689 14.6893 11.5291 14.6283 11.5032 14.5611C11.4774 14.4939 11.466 14.4219 11.47 14.35L11.55 13.12C11.55 12.9874 11.6027 12.8602 11.6964 12.7665C11.7902 12.6727 11.9174 12.62 12.05 12.62C12.1826 12.62 12.3098 12.6727 12.4035 12.7665C12.4973 12.8602 12.55 12.9874 12.55 13.12L12.52 13.1Z" fill="#96CCEE"/>
<path fill-rule="evenodd" clip-rule="evenodd" d="M5.68999 15.33V15.2C5.68999 15.0674 5.74267 14.9402 5.83644 14.8465C5.93021 14.7527 6.05738 14.7 6.18999 14.7C6.3226 14.7 6.44978 14.7527 6.54355 14.8465C6.63731 14.9402 6.68999 15.0674 6.68999 15.2V15.33C6.84031 15.3964 6.97619 15.4915 7.08999 15.61C7.20875 15.7215 7.30101 15.8582 7.35999 16.01C7.38647 16.0704 7.40075 16.1354 7.40201 16.2013C7.40326 16.2672 7.39147 16.3328 7.3673 16.3941C7.34314 16.4554 7.30708 16.5114 7.2612 16.5588C7.21533 16.6061 7.16054 16.6439 7.09999 16.67C6.97629 16.7176 6.83909 16.7161 6.71642 16.666C6.59375 16.6158 6.49488 16.5207 6.43999 16.4C6.4271 16.3658 6.40658 16.3351 6.37999 16.31C6.35545 16.2844 6.32593 16.2641 6.29326 16.2504C6.26059 16.2366 6.22544 16.2297 6.18999 16.23C6.12604 16.2423 6.06835 16.2764 6.02686 16.3266C5.98537 16.3768 5.96267 16.4399 5.96267 16.505C5.96267 16.5701 5.98537 16.6332 6.02686 16.6834C6.06835 16.7336 6.12604 16.7678 6.18999 16.78C6.48359 16.7786 6.76861 16.879 6.99655 17.064C7.22449 17.2491 7.38127 17.5074 7.44021 17.7951C7.49915 18.0827 7.45661 18.3818 7.31983 18.6416C7.18305 18.9014 6.96048 19.1058 6.68999 19.22V19.35C6.68999 19.4826 6.63731 19.6098 6.54355 19.7036C6.44978 19.7973 6.3226 19.85 6.18999 19.85C6.05738 19.85 5.93021 19.7973 5.83644 19.7036C5.74267 19.6098 5.68999 19.4826 5.68999 19.35V19.22C5.54014 19.1573 5.40419 19.0655 5.28999 18.95C5.167 18.834 5.06841 18.6946 4.99999 18.54C4.96378 18.4211 4.97315 18.293 5.02629 18.1806C5.07944 18.0682 5.17253 17.9797 5.28742 17.9322C5.40231 17.8848 5.53076 17.8818 5.64771 17.9239C5.76467 17.966 5.86174 18.0502 5.91999 18.16C5.93288 18.1942 5.95341 18.225 5.97999 18.25C6.03408 18.2933 6.10075 18.3179 6.16999 18.32C6.2416 18.32 6.31028 18.2916 6.36091 18.2409C6.41155 18.1903 6.43999 18.1216 6.43999 18.05C6.43999 17.9784 6.41155 17.9097 6.36091 17.8591C6.31028 17.8085 6.2416 17.78 6.16999 17.78C5.83491 17.7747 5.51549 17.6372 5.28134 17.3975C5.0472 17.1577 4.91731 16.8351 4.91999 16.5C4.92203 16.2516 4.99578 16.009 5.13237 15.8014C5.26897 15.5939 5.4626 15.4302 5.68999 15.33V15.33Z" fill="#F1734D"/>
<path fill-rule="evenodd" clip-rule="evenodd" d="M16 6.19002C16.0251 5.83783 16.1504 5.50017 16.3613 5.21693C16.5721 4.93369 16.8595 4.71669 17.1897 4.59156C17.5199 4.46644 17.879 4.4384 18.2245 4.51078C18.5701 4.58316 18.8878 4.75292 19.14 5.00002C19.2341 5.09417 19.287 5.22187 19.287 5.35502C19.287 5.48817 19.2341 5.61587 19.14 5.71002C19.0458 5.80417 18.9181 5.85706 18.785 5.85706C18.6518 5.85706 18.5241 5.80417 18.43 5.71002C18.3195 5.5983 18.18 5.5198 18.0271 5.48344C17.8743 5.44707 17.7143 5.4543 17.5654 5.50429C17.4164 5.55428 17.2845 5.64504 17.1846 5.76625C17.0846 5.88747 17.0207 6.03428 17 6.19002H18C18.1326 6.19002 18.2598 6.2427 18.3536 6.33646C18.4473 6.43023 18.5 6.55741 18.5 6.69002C18.5 6.82263 18.4473 6.9498 18.3536 7.04357C18.2598 7.13734 18.1326 7.19002 18 7.19002H17C17.0352 7.38421 17.1377 7.5598 17.2895 7.68597C17.4413 7.81214 17.6326 7.88084 17.83 7.88002C17.9393 7.88083 18.0477 7.86005 18.1489 7.81887C18.2502 7.77768 18.3423 7.7169 18.42 7.64002C18.4665 7.59315 18.5218 7.55596 18.5827 7.53057C18.6436 7.50519 18.709 7.49212 18.775 7.49212C18.841 7.49212 18.9064 7.50519 18.9673 7.53057C19.0282 7.55596 19.0835 7.59315 19.13 7.64002C19.2216 7.73348 19.2729 7.85914 19.2729 7.99002C19.2729 8.12089 19.2216 8.24655 19.13 8.34002C18.9607 8.51275 18.7583 8.64959 18.535 8.74237C18.3116 8.83515 18.0719 8.88196 17.83 8.88002C17.3686 8.87905 16.9245 8.70479 16.5855 8.39178C16.2466 8.07877 16.0376 7.64985 16 7.19002H15.81C15.6782 7.18746 15.5525 7.13396 15.4593 7.04074C15.3661 6.94752 15.3126 6.82182 15.31 6.69002C15.31 6.55741 15.3627 6.43023 15.4564 6.33646C15.5502 6.2427 15.6774 6.19002 15.81 6.19002H16Z" fill="#F1734D"/>
</svg>
