<svg width="24" height="24" viewBox="0 0 24 24" fill="none" xmlns="http://www.w3.org/2000/svg">
<path d="M12 8.12001C12.7795 8.12988 13.5386 8.37016 14.1818 8.81058C14.8249 9.25101 15.3234 9.8719 15.6144 10.5951C15.9054 11.3182 15.976 12.1113 15.8171 12.8745C15.6583 13.6377 15.2772 14.3368 14.7219 14.8838C14.1665 15.4308 13.4617 15.8013 12.6963 15.9486C11.9308 16.0958 11.1388 16.0133 10.4202 15.7114C9.70148 15.4095 9.0882 14.9017 8.65754 14.2519C8.22688 13.6022 7.9981 12.8395 8.00001 12.06C7.9986 11.5371 8.10154 11.0192 8.30281 10.5366C8.50408 10.054 8.79963 9.61646 9.17215 9.24954C9.54466 8.88261 9.98666 8.59371 10.4722 8.39975C10.9578 8.2058 11.4772 8.11069 12 8.12001" fill="#F7BF75"/>
<path d="M15.33 17.61L16.52 19.66C17.8494 18.8727 18.9501 17.7517 19.7131 16.4082C20.4761 15.0646 20.8749 13.5451 20.87 12H18.44V12.06C18.4407 13.1741 18.155 14.2696 17.6104 15.2415C17.0658 16.2134 16.2806 17.029 15.33 17.61Z" fill="#F7BF75"/>
<path d="M12 3.10999C10.6343 3.11433 9.28801 3.43325 8.06551 4.04201C6.843 4.65077 5.77719 5.533 4.95076 6.62025C4.12433 7.70749 3.5595 8.97053 3.3001 10.3113C3.0407 11.6522 3.0937 13.0347 3.45499 14.3518C3.81627 15.6688 4.47614 16.8849 5.38338 17.9057C6.29062 18.9265 7.42084 19.7245 8.68636 20.2379C9.95187 20.7513 11.3187 20.9662 12.6807 20.866C14.0427 20.7657 15.3633 20.3531 16.54 19.66L15.35 17.61C14.4932 18.1293 13.5278 18.4433 12.5294 18.5272C11.5309 18.6111 10.5267 18.4627 9.5952 18.0936C8.66372 17.7245 7.83035 17.1448 7.16035 16.3999C6.49036 15.6549 6.00195 14.7649 5.73338 13.7997C5.4648 12.8344 5.42336 11.8201 5.6123 10.8361C5.80124 9.85216 6.21543 8.92531 6.82242 8.12818C7.42941 7.33105 8.21272 6.68527 9.11099 6.24145C10.0093 5.79763 10.9981 5.5678 12 5.56999V5.56999V3.10999Z" fill="#FFEABB"/>
<path d="M12 3.10999V5.56999C13.7022 5.58303 15.3312 6.26435 16.5358 7.46711C17.7405 8.66987 18.4243 10.2978 18.44 12H20.87C20.87 9.64567 19.9361 7.38749 18.2733 5.72087C16.6104 4.05424 14.3543 3.11528 12 3.10999Z" fill="#F1734D"/>
<path d="M12 9.00002C12.6179 8.99804 13.2225 9.17959 13.7371 9.52166C14.2517 9.86373 14.6532 10.3509 14.8906 10.9214C15.128 11.4919 15.1906 12.1201 15.0705 12.7262C14.9505 13.3324 14.6531 13.8892 14.2162 14.3262C13.7792 14.7631 13.2224 15.0605 12.6162 15.1805C12.0101 15.3006 11.3819 15.238 10.8114 15.0006C10.2409 14.7632 9.75371 14.3618 9.41165 13.8471C9.06958 13.3325 8.88802 12.7279 8.89 12.11C8.89 11.2852 9.21766 10.4942 9.8009 9.91091C10.3841 9.32768 11.1752 9.00002 12 9.00002Z" fill="#F1734D"/>
<path fill-rule="evenodd" clip-rule="evenodd" d="M11.46 10.18V10.08C11.46 9.94735 11.5127 9.82017 11.6065 9.7264C11.7002 9.63263 11.8274 9.57996 11.96 9.57996C12.0926 9.57996 12.2198 9.63263 12.3136 9.7264C12.4073 9.82017 12.46 9.94735 12.46 10.08V10.18C12.5951 10.2445 12.7198 10.3287 12.83 10.43C12.938 10.5444 13.0259 10.6763 13.09 10.82C13.1163 10.8804 13.1304 10.9454 13.1315 11.0112C13.1327 11.0771 13.1209 11.1425 13.0967 11.2038C13.0726 11.2651 13.0366 11.321 12.9908 11.3684C12.9451 11.4158 12.8904 11.4537 12.83 11.48C12.7696 11.5062 12.7046 11.5203 12.6388 11.5215C12.5729 11.5226 12.5075 11.5108 12.4462 11.4866C12.3849 11.4625 12.329 11.4265 12.2816 11.3808C12.2342 11.335 12.1963 11.2804 12.17 11.22C12.1593 11.19 12.1423 11.1627 12.12 11.14C12.0764 11.1002 12.0191 11.0787 11.96 11.08C11.9265 11.0729 11.8918 11.0733 11.8585 11.0813C11.8252 11.0893 11.7941 11.1047 11.7675 11.1263C11.7409 11.1478 11.7195 11.175 11.7047 11.206C11.69 11.2369 11.6823 11.2707 11.6823 11.305C11.6823 11.3392 11.69 11.373 11.7047 11.4039C11.7195 11.4349 11.7409 11.4621 11.7675 11.4837C11.7941 11.5052 11.8252 11.5206 11.8585 11.5286C11.8918 11.5366 11.9265 11.5371 11.96 11.53C12.2403 11.5319 12.5116 11.6295 12.7289 11.8066C12.9461 11.9837 13.0964 12.2298 13.1547 12.504C13.2131 12.7781 13.176 13.064 13.0496 13.3143C12.9233 13.5645 12.7153 13.7641 12.46 13.88V14C12.46 14.1326 12.4073 14.2597 12.3136 14.3535C12.2198 14.4473 12.0926 14.5 11.96 14.5C11.8274 14.5 11.7002 14.4473 11.6065 14.3535C11.5127 14.2597 11.46 14.1326 11.46 14V13.89C11.3202 13.8341 11.194 13.7489 11.09 13.64C10.9779 13.5268 10.8865 13.3948 10.82 13.25C10.7683 13.1266 10.7677 12.9878 10.8183 12.864C10.869 12.7403 10.9667 12.6417 11.09 12.59C11.2133 12.5382 11.3522 12.5376 11.4759 12.5883C11.5997 12.6389 11.6983 12.7366 11.75 12.86C11.7448 12.883 11.7448 12.9069 11.75 12.93C11.7806 12.9644 11.8204 12.9893 11.8647 13.0017C11.9091 13.0141 11.956 13.0135 12 13C12.061 13 12.1195 12.9757 12.1627 12.9326C12.2058 12.8895 12.23 12.831 12.23 12.77C12.23 12.709 12.2058 12.6505 12.1627 12.6073C12.1195 12.5642 12.061 12.54 12 12.54C11.7197 12.538 11.4484 12.4404 11.2312 12.2633C11.0139 12.0862 10.8637 11.8401 10.8053 11.566C10.747 11.2918 10.784 11.0059 10.9104 10.7556C11.0367 10.5054 11.2448 10.3058 11.5 10.19L11.46 10.18Z" fill="#FFEABB"/>
</svg>
